<?xml version="1.0" encoding="utf-8"?>
<svg version="1.1" xmlns="http://www.w3.org/2000/svg" xmlns:xlink="http://www.w3.org/1999/xlink" x="0px" y="0px" width="2000px"
	 height="2000px" viewBox="0 0 2000 2000" style="enable-background:new 0 0 2000 2000;" xml:space="preserve">
<g id="Layer_5">
	<path class="st3" d="M675.51,1398.07c4.83,13.83,6.28,27.81,6.07,41.88c0.12-0.68,0.27-1.35,0.38-2.03
		c1.67-10.18,1.55-20.73-1.96-30.53C678.83,1404.1,677.3,1401,675.51,1398.07z"/>
	<path class="st3" d="M1836.32,519.55c6.28,1.02,12.56,2.05,18.83,3.07c-34.46-40.97-78.52-73.81-127.62-95.15
		c1.56,15.29-19.97,20.56-35.24,18.78c-25.12-2.92-50.76-9.4-70.48-25.22s-32.14-42.76-24.96-67.01c-8.58,1.4-16.65-6.3-18.34-14.83
		c-1.69-8.53,1.47-17.29,5.62-24.94c3.41-6.3,14.94-9.85,16.3-4.8c0.45-18.47,29.03-29.65,41.3-15.09
		c-4.97,6.81-9.94,13.63-14.91,20.44c8.68-1.39,17.01-4.89,24.08-10.12c13.03,23.69,24.75,48.09,35.11,73.06
		c4.83-4.27,9.66-8.53,14.49-12.8c-0.82-6.44-1.65-12.87-2.47-19.31c2.34,4.53,4.68,9.06,7.01,13.58
		c9.08-4.31,16.14-12.65,18.88-22.32c-14.41-6.85-23.85-22.96-22.79-38.88c0.41-6.13,2.14-12.73-0.81-18.12
		c-2.25-4.11-6.66-6.42-10.6-8.95c-16.32-10.47-27.55-28.51-29.75-47.78c-0.36,12.48-0.71,24.96-1.07,37.44
		c-10.75-15.99-24.4-30.03-40.09-41.21c5.14,10.79,8.55,22.41,10.05,34.27c-11.02-10.22-19.87-22.75-25.82-36.55
		c1.91,13.48,3.82,26.97,5.73,40.45c-19.42-5.51-37.93-14.2-54.58-25.61c7.52,12.53,15.03,25.05,22.55,37.58
		c-14.48-6.06-28.97-12.12-43.45-18.18L1559.1,272c-12.29,6.06-28.34,3.36-37.96-6.4c3.32,5.72,6.64,11.44,9.96,17.16
		c-35.08,9.47-76.73,2.6-100.06-25.25c-23.34-27.85-18.51-77.65,14.15-93.57c-4.11-7.36-5.51-16.21-3.86-24.48
		c-58.37,2.58-116.56,8.99-174.09,19.2c1.88,3.33,3.77,6.67,5.65,10c-48.54,13.83-97.07,27.65-145.61,41.48
		c24.68,8.06,57.6-3.5,73.84,16.76c9.73,12.14,7.15,30.74-1.88,43.4c-9.02,12.67-23.04,20.7-36.76,28.03
		c83.21-17.68,173.4,0.44,243.32,48.9c7.08,4.91,14.5,14.81,8.37,20.87c-4.3,4.25-11.42,2.03-17.45,2.46
		c-18.42,1.32-23.96,26.4-39.13,36.93c-9.21,6.39-21.4,6.88-31.05,12.58s-14.53,22.1-4.48,27.07c-22.86,11.35-40.63,32.52-47.85,57
		c-11.37,17.64-21.5,36.09-30.29,55.15c5.1,2.78,12.17,1.11,15.48-3.66c1.59,50.94,0.44,108.76-37.14,143.2
		c-38.41,35.19-97.59,30.25-149.19,23.12c-8.44-6.77-15.11-18.63-21.78-30.48c-3.12,2.52-5.05,6.44-5.14,10.45
		c-3.78-11.86-7.56-23.71-11.34-35.57c1.28,6.37,2.55,12.99,1,19.29c-1.55,6.31-6.78,12.21-13.28,12.3
		c-3.29-18.16-4.92-36.62-4.85-55.08c-4.82-0.24-9.58-1.49-13.91-3.63c0.1,6.56,0.21,13.11,0.31,19.67
		c-18.4-6.46-39.01-6.44-57.4,0.05c-0.6-8.65-1.67-18.27-8.26-23.9c-1.32-1.12-2.85-2.08-3.71-3.58c-1.31-2.29-0.7-5.16-0.04-7.72
		c2.58-10.12,5.15-20.25,7.73-30.37c11.3-1.4,22.59-2.79,33.89-4.19c5.13-0.63,10.47-1.34,14.78-4.21
		c4.31-2.86,7.19-8.58,5.14-13.33c-8.47-8-19.02-13.8-30.32-16.67c-4.05,7.19-16.91,6-19.57-1.81c-12.38-1.56-25.75-3.34-39.13-5.12
		c-2.21-0.29-4.65-0.71-6.07-2.43c-2.35-2.85-0.48-7.03,0.09-10.68c1.53-9.78-10.03-18.91-19.18-15.17
		c-0.06-6.35-0.19-12.99-3.19-18.59c-3-5.6-9.84-9.69-15.77-7.41c-3.84-40.13-11.46-79.89-22.73-118.59
		c-1.95,0.22-3.9,0.44-5.85,0.66l-2.57,10.75c-6.07,0.11-12.51-1.81-16.35-6.51c-3.84-4.7-4.07-12.5,0.55-16.44
		c6.74-5.61,7.64-16.93,1.87-23.53c-0.58-14.66-3.33-29.74-8.89-43.72c1.38,8.01-3.19,16.68-10.59,20.05
		c-2.02-28.68-4.04-57.36-6.06-86.05c-3.55-0.08-7.09-0.16-10.64-0.25c-0.74-13.55-1.49-27.1-2.23-40.65
		c-4.98-0.89-9.95-1.79-14.93-2.68c2.16,38.12,4.33,76.23,6.49,114.35c0.32,5.67-3.39,14-8.17,10.94
		c-0.95-21.3-2.93-42.56-5.94-63.68c-0.94-6.58-6.88-15.26-11.92-10.93l6.3,84.2c0.23,3.12,0.32,6.67-1.89,8.88
		c-2.64,2.65-7.02,1.95-10.65,1.06c-8.51-2.09-17.03-4.17-25.54-6.26c-0.07,3.37-0.14,6.74-0.21,10.11
		c-3.85,0.01-7.7,0.03-11.55,0.04c0.86-4.53-2.79-9.39-7.38-9.83c1.71,6.91-8.27,13.13-13.72,8.55c-0.74-3.83-1.48-7.65-2.22-11.48
		c-3.04,2.54-6.94,4.04-10.9,4.19l-3.63,17.16c5.16,2.13,10.31,4.26,15.47,6.39c0.32,4.45,0.65,8.91,0.97,13.36
		c9.85-5.51,23.54,7.17,18.8,17.41c-32.17,10.51-68.93,5.93-97.54-12.15c-0.45-9.63-0.9-19.26-1.35-28.89
		c11.22,2.31,23.31,0.06,32.95-6.14c-11.52,0.32-23.05,0.64-34.57,0.96c2.92-6.75-1.58-15.61-8.75-17.23
		c0.19,5.27,0.39,10.55,0.58,15.82c-11.57-1.29-23.29-1.33-34.87-0.12c1.14-14.07-0.22-28.33-4-41.93
		c-2.69,2.82-3.94,6.95-3.26,10.79c-5.15-2.05-9.9-5.08-13.94-8.87c3.02,2.68-1.18,8.06-5.16,7.38c-3.98-0.68-6.54-4.49-8.62-7.96
		c1.12,4.53-2.53,9.61-7.18,9.99c-4.65,0.38-9.08-4.03-8.72-8.68c-4.33,1.35-6.7,6.97-4.65,11.01c-4.5,0-8.99,0-13.49,0
		c-2.09-17.46-4.17-34.93-6.26-52.39c-9.28-1.38-18.75-1.48-28.06-0.3c-0.08-9.97-0.17-19.95-0.25-29.92
		c-3.48-0.67-6.95-1.35-10.43-2.02c-0.46,3.88-0.91,7.75-1.37,11.63c-4.74-0.42-9.49-0.84-14.23-1.26
		c1.54-37.56,0.36-75.23-3.53-112.62c-2.88-1.25-6.26-1.31-9.17-0.15c-0.06,3.88-0.12,7.76-0.18,11.64
		c-7.64,1.05-15.25,0.57-22.85,0.09c0.68-8.81-4.01-17.82-11.62-22.31c1.08-22.87,0.32-45.83-2.27-68.58
		c-4.12,21.83-5.95,44.09-5.46,66.29c-6.46-2.61-9.51,7.95-8.39,14.83c-6.49-0.26-12.99-0.52-19.48-0.78c0,3.79,0,7.58,0,11.36
		c3.15,0.4,6.29,0.8,9.44,1.21c0.51,5.8,1.01,11.59,1.52,17.39c-4.01-1.59-8.02-3.17-12.03-4.76c-1.91-0.76-4.27-1.45-5.87-0.15
		c-1.36,1.11-0.19,3.79,1.14,3.71c-4.6,1.62-10-5.07-6.83-9.12c-3.61-0.12-7.21-0.24-10.82-0.36c0.24,4.5,0.48,9,0.73,13.5
		c-2.79-0.01-5.59-0.02-8.38-0.03c-0.43-9.15-1.89-18.25-4.35-27.07c-3.15,0.01-6.29,0.03-9.44,0.04
		c-1.55,23.22-1.65,46.53-0.28,69.76c-1.3-3.92-6.51,1.4-6.55,5.53c-0.42,45.48-0.83,90.96-1.25,136.44
		c-0.05,5.7,4.57,13.85,8.83,10.06c3.17,49.93,2.28,99.69-2.45,149.09c-3.89-0.77-7.78-1.55-11.67-2.32
		c-3.09,5.23,1.22,13.07,7.29,13.27l0.76,34.54c-9.33,3.58-19.41,5.18-29.4,4.67c-0.15-7.9-5.71-15.42-13.22-17.88
		c-3.78,17.67-4.85,35.91-3.14,53.9c0.48,5.1,1.33,10.5,4.69,14.36c3.49,4.01,9.01,5.58,13.19,8.86c7.54,5.92,9.67,16.56,9,26.12
		c-2.61,37.11-38.2,70.83-26.5,106.13c3.78,11.41,12.1,20.64,18.31,30.93c6.21,10.29,10.32,23.43,4.91,34.16
		c-6.27,12.44-22.04,16.07-35.84,18.02c-44.47,6.29-89.34,9.67-134.25,10.13c-33.83,0.34-68.62-0.82-100.36,10.9
		c17.54,18.62,46.67,17.49,72.14,19.87c30.86,2.88,60.58,12.78,91.03,18.55c30.45,5.77,63.24,7.09,91.15-6.38
		c50.46,2.57,99.34,12.55,145.85,29.17c23.62,8.44,47.74,19.44,62.67,39.61c10.14,13.7,15.11,30.42,22.2,45.93
		c26.55,58.05,84.69,103.67,88.39,167.4c0.34,5.83-1.98,13.81-7.79,13.2c5.68-19.8-11.08-39.17-29.02-49.29
		c-17.94-10.12-38.99-16.15-52.68-31.55c-11.83-13.3-16.17-31.39-21.94-48.23c-13.13-38.26-35.65-73.27-65.04-101.07
		c-13.08-12.38-28.04-23.61-45.5-27.99c-23.25-5.83-47.88,1.25-69.5,11.59c-58.58,28-107.1,90.28-94.97,154.07
		c10.49,55.15,61.01,93.54,83.07,145.17c5.37-2.88,10.73-5.76,16.1-8.64l34.12,12.52c9.85,3.62,20.19,7.29,30.6,5.93
		c8.59-1.13,17.12-6.92,19.79-14.81c-0.87,23.14,34.53,47.53,18.08,64.9c-4.7,4.96-12.4,6.54-16.37,12.09
		c-3.34,4.67-3.16,10.87-3.57,16.6c-3.01,42.22-44.08,82.54-26.2,120.9c-50-11.24-106.24-27.11-129.46-72.8
		c-7.39-14.54-10.59-30.88-17.51-45.65c-6.91-14.77-19.23-28.75-35.43-30.57c9.27,76.39,22.16,159.95,79.87,210.85
		c23.1,20.37,51.59,33.6,76.04,52.33c24.44,18.73,45.77,46.11,44.51,76.88c-29.17,7.13-64.14,12.85-85.71-8.05
		c-20.42-19.78-22.05-58.25-48.97-67.39c-19.2-6.52-40.39,8.18-48.34,26.84c-7.94,18.66-6.14,39.84-4.2,60.02
		c6.23-5.43,16.43-2.62,22.29,3.21s8.89,13.85,13.25,20.87c19.2,30.9,60.06,38.46,96.14,43.1c13.65,1.75,27.29,3.51,40.94,5.26
		c3.9,24.06-8.31,47.68-22.05,67.8c-13.74,20.13-29.81,39.73-35.26,63.49c-5.45,23.75,4.28,53.35,27.64,60.29
		c35.31,10.5,63.81-34.72,100.47-38.35c13.99-1.39,27.72,3.52,41.49,6.32c41.66,8.47,86.96-3.34,119.19-31.07
		c14.88-12.8,27.37-28.94,44.92-37.73c17.55-8.79,43.1-6.61,51.72,11.03c-14.33-55.25-41.42-107.15-78.55-150.5
		c-21.62-25.24-48.54-53.59-42.3-86.24c4-20.89,20.93-36.59,37.63-49.75c5.89-4.64,12.38-9.36,19.87-9.76
		c7.49-0.39,15.74,5.68,14.68,13.11c19.94-12.05,19.04-40.89,14.72-63.79c-6.97-36.92-16.36-73.37-28.1-109.06
		c-3.26-9.91-6.7-20.72-3.08-30.5c4.73-12.79,20.37-18.73,33.88-16.85c0.25,0.03,0.5,0.09,0.75,0.12c0.66-0.47,1.31-0.96,1.93-1.49
		c2.84-2.45,5.1-5.83,6.53-9.29c1.25-3.04,2.76-6.4,3.25-9.73c0.03-0.31,0.06-0.62,0.1-0.92c0.02-0.23,0.05-0.47,0.06-0.7
		c0.01,0,0.01,0,0.02,0c0.11-1,0.23-2,0.38-2.97c0.34-2.26,1.61-4.09,3.33-5.44c3.03-6.18,7.92-11.01,15.37-12.48
		c15.15-3.01,29.34,10.06,32.02,24.35c2.46,13.14-1.08,26.61,1.42,39.77c1.76,9.28,6.86,17.09,13.06,24.03
		c4.99,3.37,9.97,6.73,14.96,10.1c2.53-0.06,5.07-0.1,7.62-0.11c10.25-0.05,20.37-3.13,30.59-1.29
		c15.31,2.76,24.64,15.88,28.02,30.12c9.83,12.24,19.29,25.14,33.02,32.73c8.62,4.77,17.7,8.61,27.13,11.47
		c10.21,3.09,20.69,4.92,30.85,8.28c9.72,3.22,19.19,7.23,26.44,14.66c0.94,0.96,1.85,1.95,2.76,2.96c2.79-1.25,6.14-1.26,9.59,0.8
		c9.24,5.53,19.16,11.95,30.08,13.4c5.17,0.69,9.7-1.19,14.74-1.08c5.15,0.12,9.6,3.26,10.86,7.75
		c23.34,3.05,46.76,12.23,65.03,28.06c-96.72,61.95-185.95,135.59-265.11,218.81c-19.72-10.91-40.74,11.18-53.74,29.6
		c-41.09,58.24-95.67,106.89-158.23,141.03l27.38,2.69c-4.55,6.41-9.1,12.82-13.65,19.23c20.04,7.73,40.07,15.45,60.11,23.18
		c14.38-1.54,29.31,2.82,40.6,11.86c5.09-8.64,20.49-2.15,20.64,6.73c1.41-6.84,3.69-13.82,9.52-17.36
		c5.91-3.59,15.48,0.92,15.56,6.93c14.21-65.2,46.05-126.47,91.29-175.52c-5.17-12.91,5.88-26.16,16-35.7
		c43.24-40.74,86.48-81.48,129.71-122.22c38.74-36.5,79.67-74.27,131.02-88.27s115.87,4.81,135.05,54.46
		c0.29-2.34,32.49,59.53,32.49,59.53c-14.47,21.09-33.59,38.97-55.6,52c42.58,18.54,92.66-4.76,125.59-37.5
		c-14.68,32.28-32.79,63-53.94,91.46c21.17,12.56,49.44,1.6,66.35-16.29c16.92-17.89,26.41-41.38,40.16-61.8
		c20.87-31.02,52.07-54.96,87.43-67.09c26.59,40.04,54.42,86.31,43.28,133.07c-8.25,34.64-36.71,71.91-16.46,101.21
		c3.51-36.42,31.57-69.2,67.02-78.28c-0.92,16.26-3.18,32.44-6.77,48.33c38.72-44.22,34.55-119.3-8.81-158.96
		c-6.51-5.96-14.25-12.08-15.32-20.84c-1.37-11.22,9.81-20.8,21.05-22.01s22.18,3.52,32.5,8.14
		c56.97,25.52,119.27,56.48,141.36,114.86c-9.7-41.42-21.62-86.35-55.83-111.64c-38.43-28.42-97.43-25.66-126.41-63.67
		c-27.15-35.61-12.78-86.58-21.38-130.53c-7.01-35.84-29.73-67.41-34.88-103.57c-7.63-53.54,24.15-103.92,54.52-148.67
		c32.85,6.58,69.02-12.32,82.39-43.04c-19.27,16.98-45.2,26.21-70.86,25.22c31.21-47.45,49.8-103.13,53.34-159.82
		c-36.31,39.95-25.4,112.26-69.83,142.93c-9.11-18.43-18.37-37.36-20.51-57.81c-2.14-20.45,4.29-43.08,21.14-54.86
		c8.98-6.28,20.32-9.18,27.93-17.06c10.67-11.06,11.09-28.82,20.57-40.92c20.47-26.09,76.55-21.01,77.03-54.17
		c10.22,13.37,30.95-0.64,40.36-14.59c9.34-13.86,18.24-29.42,17.18-46.1c-1.06-16.68-16.57-33.27-32.79-29.25
		c5.22,14.71,10.43,29.43,15.65,44.14c-8.13,23.15-48.92,13.22-52.76-11.01c-3.84-24.24,18.07-45.95,41.54-53.1
		c21.61-6.58,50.7-9.25,56.22-31.16c-18.68,4.08-37.35,8.16-56.03,12.24c-2.1-7.42-4.2-14.84-6.29-22.26
		c-0.15,14.1-8.51,27.82-20.98,34.41c4.83-44.52,6.79-96.77-27.25-125.86c20.69,48.72,19.28,106.34-3.76,154
		c-3.88,8.02-8.45,16.25-8.11,25.14c0.27,7.13,3.68,13.69,5.9,20.47c7.71,23.45,0.11,51.18-18.48,67.42
		c-1.18-19.44-17.29-36.94-36.57-39.71c-13.57-48.5,33.34-95.98,28.17-146.07c-6.7,18.86-21.61,34.65-40.06,42.41
		c-10.89-12.79-11.72-33.1-1.9-46.73c19.92-1.89,41.16-7.19,53.88-22.64c12.72-15.44,10.87-43.38-7.58-51.12
		c-5.67,16.8-11.34,33.6-17.02,50.4c-15.07-2.97-24.38-19.43-24.5-34.79s6.68-29.83,13.33-43.67c-22.2,14.4-35.14,41.9-32.08,68.19
		c-6.89-6.68-15.46-11.62-24.7-14.22c-5.91,16.06,5.25,36.09,22.02,39.51c-2.62,11.84-5.24,23.68-7.86,35.52
		c-16.14-24.32-32.27-48.65-48.41-72.97c-9.94,21.71-0.1,47.48,13.76,66.93s31.91,36.35,41.15,58.37
		c18.12,43.21-8.56,99.3-53.52,112.5c7.43-54.67,14.13-113.67-12.27-162.11c-12.85-23.58-33.07-52.64-16.26-73.58
		c7.18-8.95,19.09-12.42,28.33-19.23c12.27-9.04,19.23-23.46,29.5-34.72c10.27-11.25,27.69-19.33,40.49-11.08
		c-12.27-12.56-29.36-20.3-46.89-21.23c0.26-16.67,6.88-33.16,18.22-45.38c-20,4.59-36.05,22.91-37.97,43.34
		c-10.36-13.42-20.73-26.84-31.09-40.26c-11.42,23.32,30.9,42.63,28.39,68.48c-2.7,27.79-52.26,31.44-53.98,59.31
		c-11.45-39.53-27.26-77.8-47.05-113.89c-10.86,8.2-2.33,24.95,4.5,36.72c6.83,11.77,4.89,33.51-8.52,31.24
		c25.31,18.89,41.74,49.21,43.73,80.73c-19.94-32.54-46.44-61.05-77.44-83.31c28.26,30.82,49.41,68.12,61.36,108.2
		c47.32,8.59,66.78,67.21,63.47,115.19c-3.31,47.98-19.62,97.01-5.71,143.05c-13.02,6.99-30.41,4.62-41.09-5.59l-17.51,30.05
		c-7.96-28.29-15.89-58.61-6.71-86.52c7.79-23.67,26.73-41.77,39.2-63.35c12.47-21.58,16.68-52.58-2.3-68.73
		c-2.01,49.93-23.57,98.83-59.09,133.98c-36.43-59.35-39.66-137.68-8.24-199.82c-19.37,12.14-31.83,34.61-31.86,57.48
		c0.1-34.77,2.74-69.53,7.89-103.91c-29.44,44.52-34.01,104.41-11.65,152.87c-16.96-31.38-48.77-54.31-83.91-60.46
		c11.04,29.18,43.04,43.73,64.72,66.17c19.56,20.25,30.6,47.02,41.21,73.1c17.34,42.65,34.97,86.7,34.5,132.74
		c-0.81,80.01-56.16,156.75-38.03,234.68c-10.92,5.51-24.92-1-31.51-11.31c-6.6-10.31-7.51-23.17-7.47-35.41
		c0.21-65.16,21.93-128.92,21.31-194.08c-0.62-65.16-34.22-138.65-98.1-151.51c-53.17-21.24-103.62-67.15-135.06-123.81
		c-8.4-15.14-13.89-37.53,0.61-47.02c6.3-4.12,14.33-4.01,21.85-4.23c72.45-2.12,144.06-58.27,149.43-130.55
		c1.14-15.4-0.53-31.09,2.84-46.16c6.55-29.26,31.14-51.31,57.61-65.38c26.48-14.07,55.76-22.15,82.53-35.65
		c8.38-4.23,17.24-9.92,19.55-19.02c3.29-12.98-7.65-29.28,1.76-38.81c12.61,0.39,23.26,10.51,28.17,22.14
		c4.9,11.63,5.22,24.6,5.46,37.22c-6.73,7.52-13.47,15.04-20.2,22.55c4.04,1.67,8.07,3.34,12.11,5.01
		c-1.72,5.25-5.84,9.65-10.96,11.73c12.56,5.87,28.11-0.57,36.98-11.22c8.87-10.65,12.63-24.54,16.14-37.95
		c12.04,25.93,14.65,56.13,7.24,83.74c43.87,5.13,74.97,40.27,73.85,77.31c2.47,14.62,2.56,25.53,2.66,36.44
		c2.07-7.06,6.15-13.12,11.47-17.98c-0.54-0.71-0.89-1.59-0.92-2.62c-0.36-12.13,1.44-24.3,2.62-36.35
		c1.13-11.53,2.4-23.05,3.44-34.59c2.23-24.78,3.29-49.64,2.28-74.51c-0.09-2.27,0.89-3.85,2.32-4.76
		c-0.17-1.15-0.33-2.31-0.52-3.46c-0.12-0.72,0.98-1.03,1.1-0.3c0.18,1.07,0.35,2.15,0.52,3.22c3.41-1.25,8.18,0.53,8.4,5.31
		c1.15,25.17,0.18,50.32-1.97,75.41c-1.04,12.13-2.35,24.25-3.84,36.34c-1.22,9.86-2.1,19.85-3.97,29.62
		c10.19-5.54,22.5-7.77,33.96-5.78c22.56,3.92,41.15,20.88,52.61,40.71c11.46,19.83,16.88,42.48,22.16,64.76
		c8.56-20.42,19.22-39.95,31.76-58.19c7.3-10.62,15.91-21.31,28.02-25.71c22.97-8.34,46.67,8.78,65.13,24.79
		C1842.6,624.5,1832.89,571.62,1836.32,519.55z M1675.79,290.63c3.38,1.15,6.35,3.21,8.35,6.19c0.92,1.38,1.61,2.93,2.05,4.54
		c0.47,1.69,0.8,3.61,0.53,5.36c-0.08,0.53-0.99,0.53-1.07,0c-0.27-1.62-0.32-3.24-0.75-4.83c-0.4-1.5-1.02-2.93-1.87-4.23
		c-1.52-2.34-3.75-4.07-6.29-5.17c0.93,2.77,2,5.61,4.06,7.72c0.63,0.64-0.36,1.63-0.99,0.99c-2.59-2.64-3.74-6.28-4.88-9.71
		C1674.77,291,1675.29,290.47,1675.79,290.63z M1325.94,163.02c10.77,4.19,22.35,6.33,33.66,8.55c5.35,1.05,5.56,6.92,2.7,10.15
		c1.1,0.34,2.2,0.68,3.3,1.02c0.62,0.19,0.36,1.16-0.27,0.98c-1.3-0.39-2.6-0.79-3.9-1.18c-1.33,1.05-3.09,1.58-5.18,1.16
		c-11.91-2.43-23.74-4.87-34.37-11.06C1316.86,169.71,1320.29,160.83,1325.94,163.02z M1381.78,261.22
		c-1.13-0.17-2.27-0.33-3.4-0.47c-5-0.63-10.02-1.05-15.05-1.3c-0.87,1.87-2.67,3.24-5.41,3.11c-22.86-1.1-45.63,1.23-68.29,4
		c-10.99,1.34-21.96,2.77-32.98,3.86c-0.85,0.08-1.72,0.18-2.6,0.28c-4.71,0.79-9.43,1.57-14.14,2.32
		c-0.57,0.09-0.86-0.63-0.52-0.92c-4.86,0.18-9.64-0.13-13.89-1.57c-4.63-1.57-4.57-7.77,0-9.36c5.07-1.76,10.73-1.64,16.05-2
		c5.34-0.36,10.69-0.83,16.02-1.36c10.71-1.08,21.39-2.46,32.08-3.76c22.67-2.76,45.43-5.08,68.29-3.98
		c4.75,0.23,6.69,4.72,5.81,8.25c6.13,0.34,12.25,0.97,18.31,1.97C1382.65,260.4,1382.38,261.31,1381.78,261.22z M1383.74,243.46
		c-7.17-0.67-13.79-4.37-20.55-6.71c-6.57-2.27-13.23-4.24-19.94-6.05c-13.77-3.71-27.63-6.89-41.5-10.15
		c-0.43-0.1-0.82-0.24-1.17-0.4c-17.79-2.73-35.71-4.65-53.51-7.24c-5-0.73-3.73-9,1.18-8.73c18.14,0.98,36.26,2.45,54.23,4.97
		c-3.9-0.76-7.81-1.46-11.74-2.06c-9.73-1.49-19.52-2.51-29.33-3.23c-9.94-0.72-19.9-1.13-29.86-1.36c-0.63-0.01-0.63-0.99,0-0.97
		c1.28,0.03,2.55,0.06,3.83,0.09c9.98,0.27,19.96,0.73,29.91,1.53c9.8,0.79,19.57,1.9,29.27,3.48c8.24,1.34,16.41,3.06,24.49,5.16
		c1.54,0.28,3.09,0.57,4.63,0.87c0.98,0.19,1.76,0.56,2.37,1.05c2.2,0.65,4.39,1.33,6.57,2.04c4.93,1.04,9.85,2.14,14.73,3.38
		c7,1.78,13.97,3.74,20.8,6.12c6.58,2.29,14.2,4.44,19.18,9.55C1390.16,237.74,1388.29,243.89,1383.74,243.46z M563.25,1701.67
		c5.81,8.74,11.52,17.69,18.86,25.26c4.53,4.67-2.59,11.8-7.14,7.14c-7.95-8.15-14.22-17.82-20.52-27.25
		C550.78,1701.34,559.63,1696.22,563.25,1701.67z M962.44,1368.13c4.66-1.08,9.19,0.12,13.6,1.71c2.52-0.58,5.2-0.8,7.69-0.95
		c5.88-0.35,11.58-0.43,17.38,0.8c4.62,0.97,8.4,6.15,8.2,10.78c-0.55,13.31-11.5,17.88-22.95,16.08
		c-3.86,4.43-10.87,6.37-16.39,1.18c-4.43-4.16-10.64-7.36-14.22-13.17C952.08,1378.58,955.49,1369.74,962.44,1368.13z
		 M915.12,1324.1c8.85,8.17,18.61,18.2,21.88,30.15c1.32,4.81-0.91,9.84-5.06,12.44c-8.06,5.04-18.07,5.01-27.76,2.86
		c-3.26,1.58-7.26,1.49-10.72-0.24c-20.33-10.12-40.93-18.89-55.08-37.47c-5.14-6.74-10.62-14.27-11.19-23.05
		c-0.59-9.07,5.27-16.29,13.95-18.51c13.24-3.38,26.53,1.74,38.06,7.88C892.19,1305.07,904.32,1314.12,915.12,1324.1z
		 M807.85,453.68c0.01-1.02,0.86-1.9,1.89-1.89c4.2,0.03,9.06-0.16,12.94,1.67c0.56,0.26,0.89,0.97,0.89,1.56
		c-0.01,5.91-0.03,11.82-0.04,17.72c-0.05,21.28-0.27,42.56-1.39,63.82c-0.12,2.19-3.52,2.2-3.42,0c0.28-5.91,0.49-11.81,0.65-17.72
		c0.56-20.86,0.64-41.72,0.6-62.59c-1.43-0.43-3.12-0.49-4.55-0.57c-1.26-0.07-2.52-0.09-3.77-0.1c0.1,14.52,0.09,29.04,0.1,43.55
		c0,2.58-4,2.57-4,0C807.75,483.98,807.74,468.83,807.85,453.68z M803.96,724.78c7.07-1.1,14.21-1.01,21.21,0.57
		c2.96,0.67,6.46,1.26,8.48,3.71c1.79,2.17,2.02,4.92,2.51,7.58c0.21,1.14,0.38,2.17,1.05,2.79c1.32,1.23,5.13,0.78,6.81,0.74
		c4-0.11,8.09-0.86,12.07-0.07c4.15,0.82,8.17,2.63,12.36,3.56c4.1,0.91,8.05,1.84,11.72,3.93c3.64,2.07,1.16,8.3-2.89,6.86
		c-4.13-1.47-8.3-2.49-12.55-3.51c-4.2-1.01-8.42-3.24-12.72-3.43c-6.46-0.28-15.24,2.17-20.58-2.84c-1.68-1.58-2.31-3.79-2.77-5.97
		c-0.22-1.06-0.17-3.3-0.85-4.16c-0.88-1.13-3.43-1.32-4.75-1.61c-6.92-1.53-14.12-1.28-21.01,0.27
		c-28.9,6.51-51.18,29.26-78.46,39.87c-4.76,1.85-6.78-5.79-2.1-7.62C749.96,754.32,772.99,729.62,803.96,724.78z M794.19,406.44
		c0.78,0.24,1.36,0.96,1.36,1.79c-0.02,6.21-0.16,12.42-0.36,18.63c-0.75,22.75-2.23,45.49-2.44,68.26c-0.02,2.23-3.44,2.22-3.45,0
		c-0.05-6.44,0.04-12.88,0.21-19.32c0.56-22.07,2.3-44.08,2.33-66.16c-2.25-0.59-4.55-0.99-6.88-0.87c-1.89,0.1-3.51,0.57-5.12,1.63
		c-0.1,0.07-0.2,0.14-0.29,0.21c-0.02,0.02-0.02,0.02-0.05,0.04c-0.15,0.12-0.29,0.25-0.43,0.38c-0.28,0.26-0.54,0.55-0.8,0.84
		c-0.3,0.33-0.21,0.22-0.55,0.75c-0.22,0.33-0.42,0.68-0.61,1.03c-0.51,0.95-0.58,1.15-0.92,2.19c-0.3,0.92-0.53,1.86-0.72,2.81
		c-0.35,1.8-0.5,3.75-0.55,5.85c-0.05,2.34,0.03,4.69,0.19,7.02c0.62,8.81,2.55,17.3,3.25,26.17c0.21,2.6-3.85,2.58-4.05,0
		c-0.38-4.9-1.17-9.27-1.87-14.29c-0.7-5.01-1.33-10.04-1.49-15.1c-0.14-4.43,0.04-9.08,1.42-13.32c1.2-3.69,3.47-7.1,7.11-8.73
		C784.12,404.16,789.47,405.01,794.19,406.44z M760.98,354.22c0.32-1.15,1.43-1.61,2.52-1.43c7.77,1.25,15.7,0.02,23.52,0.13
		c2.38,0.03,2.37,3.64,0,3.69c-8.24,0.17-16.39,1.44-24.6,0.13C761.31,356.56,760.71,355.19,760.98,354.22z M776.72,593.76
		c0.82-0.58,2.09-0.15,2.55,0.67c0.54,0.95,0.14,1.95-0.67,2.55c-6.71,5-13.07,10.45-19.53,15.77
		c-11.55,9.51-23.58,18.35-37.35,24.39c-13.71,6.01-28.17,10.22-40.63,18.78c-2.14,1.48-4.16-2.02-2.03-3.48
		c7.13-4.9,14.97-8.52,22.97-11.73c6.76-2.71,13.63-5.16,20.25-8.22c6.78-3.14,13.22-7.02,19.32-11.32
		C753.75,612.61,764.62,602.39,776.72,593.76z M592.9,779.16c3.56,1.35,3.39,7.47-0.96,7.12c-11.3-0.89-26.26-2.54-28.95-15.88
		c-0.97-4.78-0.65-9.72-1.61-14.5c-1.21-6.06-4.03-11.25-7.89-15.87c-7.78,9.78-11.09,21.91-15.41,33.56
		c-4.68,12.6-11.07,23.79-22.75,31.09c-4.56,2.85-8.74-4.37-4.2-7.19c11.83-7.35,16.75-19.57,21.2-32.15
		c4.36-12.35,8.94-24.51,18.31-34.03c1.48-1.5,4.11-1.52,5.58,0c9.18,9.51,13.03,19.83,13.86,32.81c0.22,3.36,0.15,7.21,2.73,9.73
		c3.38,3.28,9.13,4.27,14.24,4.78c0.01-3.16,1.09-6.43,2.92-8.11c6.29-5.77,18.89,3.72,24.61,6.4c11.5,5.38,26.53,4.58,38.95,4.41
		c12.79-0.18,25.41-0.53,38.09,1.45c3.74,0.58,2.84,7.02-0.89,6.6c-19.29-2.17-38.72,0.48-58.03-1.27
		c-8.9-0.81-17.13-2.24-25.02-6.55c-3.5-1.91-6.85-3.86-10.72-4.94c-2.1-0.59-2.14-0.98-2.48,1.03
		C594.11,779.91,595.34,780.08,592.9,779.16z M466.11,641.51c2.73-0.1,5.45-0.11,8.14,0.35c4.03,0.69,8.1,1.2,12.19,1.42
		c7.24,0.39,14.44-0.26,21.44-2.21c7.66-2.14,14.8-5.71,21.62-9.75c1.89-1.12,3.59,1.81,1.72,2.94
		c-7.89,4.76-16.31,8.95-25.33,11.06c-7.53,1.76-15.3,2.07-22.98,1.37c-2.22-0.2-4.43-0.48-6.64-0.8c-1.72-0.25-3.42-0.61-5.16-0.7
		c-2.86-0.14-5.74,0.03-8.6,0.2c-10.56,0.62-26.54,2.68-31.53-9.43c-0.38-0.93,0.42-2.06,1.3-2.29c1.06-0.28,1.9,0.36,2.29,1.3
		c2.23,5.41,8.45,6.76,13.7,7.07C454.23,642.41,460.17,641.72,466.11,641.51z M452.97,533.88c-0.13-3.27,4.95-3.26,5.08,0
		c0.29,7.31,0.58,14.62,0.85,21.93c0.96,25.65,1.83,51.32,1.36,76.98c-0.05,2.68-4.11,2.67-4.16,0c-0.13-7.08-0.28-14.16-0.45-21.25
		C455.03,585.65,454.03,559.77,452.97,533.88z M525.51,583.59c0.22-17.02,0.96-34.03,0.99-51.05c0-3.27,5.08-3.27,5.08,0
		c0,4.82-0.06,9.64-0.17,14.45c-0.4,17.02-1.24,34.02-1.52,51.05c-0.05,2.81-4.32,2.8-4.36,0
		C525.44,593.22,525.44,588.41,525.51,583.59z M608.8,666c2.1,1,0.27,4.04-1.81,3.1c-3.77-1.71-7.36-3.73-10.83-5.99
		c-11.38-7.43-21.1-17.2-33.32-23.37c-2.14-1.08-0.26-4.28,1.88-3.21c3.51,1.77,6.86,3.82,10.09,6.05
		C586.17,650.44,596.24,660,608.8,666z M585.5,571.31c0.01-3.02,4.68-3.02,4.69,0c0.01,4.73,0.02,9.45,0.04,14.18
		c0.08,16.67,0.27,33.33,1.01,49.99c0.12,2.67-3.9,2.6-4.11,0c-0.38-4.72-0.67-9.45-0.89-14.18
		C585.44,604.65,585.47,587.97,585.5,571.31z M624.58,515.17c0-2.62,4.06-2.61,4.06,0c0.01,4.73,0.07,9.45,0.18,14.18
		c0.37,16.66,1.1,33.32,0.99,49.99c-0.02,2.41-3.72,2.4-3.73,0c-0.03-4.73-0.13-9.45-0.25-14.18
		C625.4,548.49,624.57,531.84,624.58,515.17z M668.73,537.89c-0.12-2.57,3.86-2.55,3.98,0c0.3,6.19,0.66,12.39,1.05,18.58
		c1.4,21.88,3.26,43.73,4.16,65.64c0.1,2.4-3.59,2.38-3.72,0c-0.34-6.19-0.73-12.39-1.14-18.58
		C671.63,581.65,669.78,559.8,668.73,537.89z M717.05,543.24c0-2.32,3.6-2.31,3.59,0c-0.01,13.37-0.02,26.73-0.06,40.1
		c-0.01,2.24-3.46,2.23-3.47,0C717.07,569.97,717.06,556.61,717.05,543.24z M726.63,361.34c1.18-3.07,3.45-5.87,6.93-6.18
		c3.41-0.31,7.25,1.84,8.46,5.06c1.24,3.29,0.97,7.21,0.75,10.64c-0.2,3.1-0.73,6.19-0.86,9.3c-0.09,2.17-3.31,2.17-3.38,0
		c-0.09-3.09,0.43-6.21,0.62-9.3c0.19-3.05,0.42-6.35-0.46-9.17c-0.05-0.16-0.1-0.31-0.16-0.46c-0.01-0.03-0.02-0.06-0.03-0.07
		c-0.1-0.2-0.21-0.39-0.33-0.57c-0.03-0.02-0.15-0.15-0.24-0.26c-0.07-0.05-0.26-0.2-0.32-0.24c-0.2-0.13-0.39-0.26-0.59-0.38
		c-0.7-0.41-1.41-0.72-2.2-0.89c-0.23-0.05-0.23-0.05-0.6-0.06c-0.11,0-0.83,0.07-0.53,0.02c-0.78,0.14-0.87,0.2-1.5,0.63
		c-0.13,0.09-0.18,0.13-0.46,0.4c-0.11,0.11-0.54,0.6-0.44,0.48c-0.85,1.09-1.25,2.13-1.59,3.42c-0.7,2.61-0.72,5.38,0.27,7.93
		c0.36,0.93-0.4,2.02-1.28,2.26c-1.02,0.28-1.9-0.36-2.26-1.28C725.08,369.13,725.3,364.81,726.63,361.34z M476.38,349.92
		c3.07-3.19,7.69-4.48,12.02-4.21c4.63,0.28,9.93,2,13.22,5.39c3.18,3.27,4.49,7.84,5.14,12.24c0.76,5.13,0.8,10.33,1.31,15.49
		c0.1,0.95-0.89,1.78-1.77,1.77c-1.04-0.01-1.66-0.81-1.77-1.77c-0.59-5.03-0.67-10.14-1.48-15.14c-0.58-3.58-1.54-7.39-4.19-10.03
		c-2.74-2.74-7.3-4.09-11.1-4.17c-3.33-0.07-6.81,0.93-9.02,3.56c-2.5,2.97-2.33,7.05-1.3,10.57c0.71,2.43-3.09,3.46-3.78,1.04
		C472.21,359.57,472.57,353.89,476.38,349.92z M471.55,480.48c2.16,0.19,4.32,0.36,6.49,0.5c17.33,1.13,34.73,0.6,52.04-0.49
		c17.75-1.12,35.45-2.87,53.18-4.21c17.53-1.33,35.12-2.3,52.7-1.85c17.21,0.44,34.48,2.26,51.19,6.51
		c16.97,4.32,33.29,11.26,47.9,20.93c1.27,0.84,1.8,2.31,1.22,3.74c-0.6,1.5-2.05,1.94-3.53,1.73c-2.91-0.41-5.81-0.84-8.71-1.3
		c-11.48-1.84-22.88-4.15-34.27-6.49c-11.43-2.35-22.82-5.15-34.53-5.57c-22.01-0.79-43.28,5.31-64.58,9.91
		c-16.28,3.51-32.79,6.12-49.38,7.63c-17.96,1.63-36.17,1.99-54.1-0.24c-16.6-2.07-33.38-6.31-47.62-15.38
		c-1.21-0.77-1.79-2.82-0.5-3.87c8.4-6.77,19.9-7.36,30.41-7.41c-0.33-0.41-0.53-0.93-0.53-1.54
		C468.95,481.77,470.15,480.36,471.55,480.48z M431.45,257.96c0.88,0.1,1.55,0.52,1.83,1.39c1.57,4.82,2.88,10.72,1.24,15.69
		c-0.72,2.18-4.12,1.28-3.47-0.96c0.65-2.21,0.44-4.56,0.16-6.82c-0.24-1.91-0.67-3.81-1.22-5.66c-3.39-0.33-6.97-0.5-10.13,0.25
		c-1.29,0.3-1.88,0.5-2.88,1.1c-0.12,0.07-0.54,0.36-0.61,0.4c-0.02,0.02-0.34,0.29-0.42,0.36c-0.17,0.16-0.33,0.33-0.49,0.5
		c-0.08,0.09-0.16,0.18-0.24,0.27c0,0,0,0,0,0c-0.31,0.43-0.57,0.89-0.81,1.36c-0.05,0.09-0.09,0.18-0.13,0.28
		c0,0.01,0,0.01-0.01,0.02c-0.1,0.26-0.2,0.53-0.28,0.8c-0.18,0.57-0.32,1.16-0.44,1.74c-0.05,0.25-0.09,0.5-0.13,0.75
		c-0.08,0.48-0.04,0.17-0.09,0.67c-0.73,6.77,0,13.7,0.02,20.49c0.01,2.53-3.92,2.52-3.92,0c0-4.52-0.19-9.04-0.23-13.55
		c-0.05-5.21-0.18-11.68,3.7-15.73C417.46,256.57,425.56,257.31,431.45,257.96z M406.79,169.45c0.78-1.33,2.23-2.16,3.77-2.16
		s2.99,0.83,3.77,2.16c0.39,0.68,0.59,1.41,0.6,2.2c0,0.79-0.2,1.52-0.6,2.2c-0.01,0.02-0.02,0.03-0.04,0.05
		c-0.01,0.01-0.02,0.03-0.03,0.04c-0.6,0.84-0.49,0.73-1.11,1.21c-0.05,0.04-0.28,0.26-0.45,0.34c-0.02,0.01-0.03,0.02-0.05,0.02
		c-0.01,0.01-0.02,0.01-0.03,0.02c-0.32,0.14-0.65,0.27-0.97,0.41c-0.36,0.05-0.72,0.1-1.08,0.15c-0.56,0.02-1.08-0.1-1.57-0.35
		c-0.17-0.06-0.33-0.13-0.49-0.21c-0.01-0.01-0.02-0.01-0.03-0.02c-0.02-0.01-0.03-0.01-0.05-0.02c-0.04-0.02-0.84-0.64-0.88-0.68
		l-0.67-0.87c0-0.01-0.01-0.01-0.01-0.02c-0.01-0.01-0.02-0.03-0.03-0.04c-0.01-0.02-0.02-0.03-0.03-0.05
		c-0.39-0.68-0.59-1.41-0.6-2.2C406.19,170.87,406.39,170.13,406.79,169.45z M401.75,190.85c0.18-0.64,0.5-1.19,0.97-1.66
		c0.34-0.37,0.74-0.63,1.21-0.78c0.45-0.24,0.93-0.34,1.45-0.32c1.02,0,1.92,0.43,2.66,1.1c0.47,0.47,0.79,1.02,0.97,1.66
		c0.1,0.36,0.14,0.72,0.13,1.07c0.05,0.16,0.09,0.33,0.09,0.51c0.08,0.3,0.08,0.6,0,0.9c-0.02,0.45-0.15,0.87-0.4,1.26
		c-0.18,0.23-0.35,0.46-0.53,0.69c-0.23,0.18-0.46,0.35-0.69,0.53c-0.27,0.11-0.54,0.23-0.81,0.34c-0.04,0.01-0.08,0.02-0.12,0.04
		c-0.14,0.04-0.82,0.13-0.96,0.13c-0.03,0-0.05,0-0.08,0c-0.14,0-0.83-0.1-0.97-0.13c-0.16-0.04-0.37-0.15-0.47-0.19
		c-0.1-0.04-0.33-0.12-0.47-0.2c-0.13-0.08-0.64-0.47-0.75-0.58c-0.12-0.12-0.22-0.27-0.32-0.41c-0.14-0.18-0.28-0.32-0.37-0.52
		c-0.16-0.32-0.31-0.67-0.42-1.01c-0.05-0.14-0.08-0.28-0.11-0.42C401.57,192.19,401.57,191.52,401.75,190.85z M383.37,166.33
		c2.79-3.65,8.53-4.33,11.69-0.7c1.95,2.24,3.02,5.44,2.71,8.41c-0.35,3.31-1.89,6.77-5.32,7.86c-3.62,1.14-6.98-0.86-9.48-3.34
		c-1.01-1-1.39-2.45-1.14-3.78C381.01,171.96,381.73,168.48,383.37,166.33z M376.53,324.15c2.14,0.36,4.47,0.95,6.25,2.24
		c1.86,1.34,2.61,3.26,2.68,5.5c0.06,1.8-0.22,3.66,0.64,5.32c1.06,2.05,3.44,3.84,5.53,4.75c1.7,0.74,3.59,0.92,5.38,1.34
		c2.48,0.58,4.74,1.64,6.9,2.96c1.84,1.13,3.53,2.41,5.2,3.78c0.86,0.7,1.7,1.42,2.59,2.08c0.3,0.22,0.6,0.44,0.92,0.63
		c0.08,0.05,0.23,0.11,0.34,0.18c0.03-0.01,0.04,0,0.1,0.07c0.72,0.16,1.16,0.65,1.33,1.21c0.15,0.15,0.29,0.3,0.45,0.44
		c0.61,0.56,1.25,1.08,1.9,1.59c1.45,1.15,2.96,2.25,4.5,3.27c0.59,0.4,1.2,0.79,1.82,1.14c0.21,0.12,0.42,0.23,0.63,0.33
		c0.01,0.01,0.01,0.01,0.02,0.01c0.01,0,0.02,0,0.03,0c-0.04-0.04-0.22-0.16,0.04,0.01c0.04,0.01,0.07,0.01,0.12,0.02
		c0.25,0.06,0.47,0.18,0.66,0.35c0.15,0.1,0.3,0.21,0.44,0.32c0.35,0.25,0.72,0.49,1.08,0.73c0.74,0.47,1.49,0.9,2.27,1.3
		c2.29,1.17,4.82,1.85,7.25,3.09c6.11,3.1,6.12,10.73,5.79,16.88c6.24,0.02,12.47,0.19,18.62,1.38c0.62,0.12,1.12,0.7,1.29,1.29
		c2.72,9.62,2.81,19.75,5.28,29.43c0.57,2.22-2.75,3.12-3.42,0.94c-2.82-9.2-2.75-18.98-5.12-28.28
		c-6.13-1.09-12.36-1.12-18.56-1.12c-0.94,0-1.88-0.84-1.82-1.82c0.18-3.01,0.32-6.08-0.04-9.09c-0.1-0.84-0.26-1.67-0.5-2.48
		c-0.26-0.89-0.33-1.09-0.8-1.86c-0.48-0.77-1.13-1.34-2.01-1.85c-1.2-0.69-1.69-0.82-2.96-1.31c-1.49-0.58-2.99-1.16-4.42-1.87
		c-0.8-0.4-1.59-0.83-2.35-1.3c-0.4-0.25-0.79-0.5-1.18-0.77c-0.06-0.04-0.67-0.42-0.66-0.47c0-0.02,0.02-0.03,0.04-0.03
		c-2.81-0.96-5.36-3.16-7.67-4.95c-1.15-0.89-2.38-1.78-3.38-2.85c-0.13-0.14-0.25-0.3-0.35-0.47c-1.44-0.62-2.73-1.89-3.86-2.82
		c-1.76-1.44-3.5-2.8-5.43-4c-2.26-1.42-4.56-2.32-7.17-2.84c-2.14-0.43-4.21-0.88-6.12-1.98c-2.23-1.28-4.59-3.23-5.81-5.53
		c-0.99-1.86-1.16-3.86-1.13-5.93c0.02-1.62,0.11-3-1.4-3.95c-1.56-0.98-3.8-1.44-5.56-1.63c-2.7-0.29-4.93,0.03-7.01,1.59
		c0,0.01-0.45,0.39-0.56,0.49c-0.24,0.23-0.47,0.47-0.69,0.72c-0.35,0.4-0.45,0.53-0.83,1.14c-0.78,1.24-1.14,2.1-1.57,3.39
		c-1.92,5.81-1.81,12.17-1.49,18.35c0.25,4.97,1.06,9.95,1.08,14.92c0.01,2.42-3.75,2.41-3.75,0c-0.01-2.48-0.31-4.96-0.52-7.43
		c-0.3-3.49-0.56-6.98-0.64-10.48c-0.14-6.34,0.08-13.21,2.88-19.03c1.16-2.41,2.97-4.62,5.35-5.9
		C370.04,323.73,373.34,323.62,376.53,324.15z M413.91,580.2c-3.87-6.35-8.23-12.38-13.33-17.79c-5.41-5.73-11.56-10.65-18.2-14.88
		c-2.03-1.29-0.14-4.54,1.89-3.24c6.88,4.41,13.3,9.55,18.9,15.53c5.29,5.65,9.78,11.99,13.74,18.63
		C418.06,580.38,415.07,582.11,413.91,580.2z M313.86,543.27c3.36-3.36,6.67-6.77,10.19-9.95c4.78-4.3,10.24-8.48,16.85-9.14
		c7.44-0.74,14.3,3.74,19.61,8.46c1.7,1.51-0.76,3.85-2.46,2.46c-3.22-2.62-6.72-5.19-10.71-6.5c-5.34-1.75-10.34-0.34-14.9,2.7
		c-5.98,3.98-10.92,9.51-15.96,14.56C314.78,547.56,312.18,544.95,313.86,543.27z M313.38,451.01c-0.01-1,0.82-1.74,1.78-1.78
		c0.96-0.04,1.79,0.85,1.78,1.78l-0.05,6.68c-0.01,0.97-0.79,1.69-1.73,1.73c-0.94,0.04-1.73-0.83-1.73-1.73L313.38,451.01z
		 M335.84,328.79c-0.91-5.09-2.26-10.2-5.19-14.47c-0.12-0.18-0.27-0.35-0.4-0.52c-0.98,0.47-1.93,1-3.06,1.02
		c-0.84,0.01-1.46-0.7-1.5-1.5c-0.04-0.82,0.72-1.49,1.5-1.5c0.02,0,0.04,0,0.05,0c0.21-0.04,0.42-0.11,0.63-0.19
		c0.08-0.04,0.16-0.08,0.24-0.11c-2.12-1.81-4.71-2.94-7.61-3.11c-2.26-0.13-2.27-3.66,0-3.53c5.78,0.34,10.48,3.41,13.58,8.23
		c3.01,4.68,4.45,10.3,5.35,15.72c1.06,6.43,1.38,12.96,1.4,19.47c0.02,6.33-0.26,12.67-0.61,18.99c-0.26,4.73-0.64,9.47-0.67,14.21
		c-0.01,2.15-3.34,2.15-3.34,0c-0.01-5.26,0.4-10.52,0.66-15.76C337.47,353.49,338,340.92,335.84,328.79z M367.29,143.1
		c0.97-0.04,1.79,0.86,1.8,1.8c0,0.38,0.02,0.75,0.06,1.13c0.01,0.05,0.01,0.35,0.04,0.47c-0.02-0.09-0.02-0.22,0.01,0
		c0.02,0.12,0.04,0.23,0.05,0.35c0.13,0.8,0.29,1.6,0.44,2.4c0.32,1.64,0.68,3.32,0.68,5c0,0.98-0.8,1.71-1.75,1.75
		c-0.95,0.04-1.74-0.84-1.75-1.75c0-0.38-0.03-0.75-0.07-1.13c0-0.01-0.01-0.07-0.01-0.13c0-0.02-0.01-0.04-0.01-0.07
		c-0.03-0.21-0.06-0.42-0.1-0.63c-0.14-0.8-0.3-1.6-0.47-2.4c-0.34-1.64-0.7-3.32-0.72-5C365.48,143.89,366.33,143.15,367.29,143.1z
		 M365.95,159.44c1.93,0,1.93,3,0,3C364.02,162.44,364.02,159.44,365.95,159.44z M350.79,160.89c0.89-0.52,2.08-0.66,3.05-0.33
		c0.37,0.12,0.76,0.28,1.1,0.46c0.39,0.2,0.71,0.53,1.05,0.8c0.92,0.75,1.47,2.02,1.75,3.14c0.33,1.32,0,2.71-0.97,3.68
		c-0.98,0.98-2.35,1.28-3.68,0.97c-0.58-0.13-1.14-0.32-1.66-0.62c-1.1-0.62-1.81-1.82-1.95-3.06c-0.13-0.3-0.25-0.6-0.33-0.92
		C348.76,163.45,349.38,161.71,350.79,160.89z M347.04,181.17c0.61-0.67,1.52-0.95,2.4-0.99c0.45-0.02,0.93,0.1,1.37,0.3
		c0.04,0.01,0.08,0.01,0.12,0.03c0.77,0.27,1.33,0.53,1.91,1.11c0.54,0.54,0.97,1.23,1.16,1.97c0.23,0.89,0.12,1.6-0.03,2.49
		c-0.15,0.91-0.92,1.69-1.67,2.17c-0.81,0.52-1.89,0.57-2.8,0.37c-0.35-0.08-0.73-0.25-1.04-0.42c-0.2-0.11-0.34-0.24-0.53-0.38
		c-0.48-0.37-0.86-0.76-1.16-1.3c-0.5-0.9-0.78-1.92-0.73-2.95C346.09,182.64,346.42,181.85,347.04,181.17z M366.16,208.38
		c4.4,9.04,6.36,24.33-2.63,31.31c-7.39,5.74-22.81,6.77-27.57-2.8c-4.56-9.15-0.11-21.18,0.03-30.82c0.04-2.4,1.93-3.58,3.78-3.56
		C347.34,192.27,361.49,198.77,366.16,208.38z M333.91,163.38c1.13-1.23,3.14-1.37,4.54-0.59c2.56,1.44,3.82,4.98,2.17,7.57
		c-0.91,1.44-2.42,1.95-4.06,1.65c-1.23-0.23-2.32-0.96-2.95-2.05c-0.51-0.89-0.62-1.89-0.62-2.89
		C332.64,165.78,332.97,164.41,333.91,163.38z M327.11,180.95c0.46-0.84,1.21-1.33,2.09-1.66c0.85-0.32,1.85-0.26,2.71,0.01
		c1.11,0.35,2.17,1.11,2.76,2.13c0.23,0.39,0.43,0.83,0.53,1.27c0.09,0.43,0.18,0.92,0.12,1.37c0,0.63-0.16,1.22-0.48,1.76
		c-0.22,0.41-0.52,0.73-0.9,0.98c-0.9,0.69-1.94,0.89-3.05,0.63c-1.26-0.3-2.27-1.17-2.87-2.27c-0.08-0.06-0.16-0.12-0.24-0.19
		c0.08,0.06,0.16,0.12,0.24,0.19c0,0,0,0,0,0c-0.32-0.26-0.61-0.54-0.84-0.92c-0.03-0.05-0.05-0.11-0.08-0.16
		c0.01,0.01,0.01,0.03,0.02,0.04c-0.01-0.01-0.01-0.03-0.02-0.04c0,0,0,0,0,0c-0.23-0.54-0.4-0.98-0.43-1.56
		C326.66,182.01,326.86,181.41,327.11,180.95z M313.42,166.83c0.18-1.75,1.66-3.32,3.5-3.26c2.58,0.09,4.5,2.42,4.6,4.91
		c0.05,1.19-0.45,2.34-1.25,3.21c-0.67,0.73-1.56,1.14-2.48,1.45c-1.21,0.4-2.73-0.04-3.59-0.95c-0.17-0.18-0.34-0.35-0.5-0.53
		C312.39,170.28,312.33,168.3,313.42,166.83z M309.22,182.1l0.36-0.85c0.04-0.07,0.09-0.13,0.14-0.2c0.07-0.18,0.17-0.39,0.26-0.54
		c0.02-0.04,0.05-0.07,0.07-0.11c0.2-0.28,0.41-0.55,0.63-0.81c0.03-0.03,0.05-0.06,0.08-0.09c0.47-0.53,1.36-0.92,2.01-1.14
		c0.07-0.02,0.15-0.04,0.22-0.05c0.35-0.07,0.72-0.11,1.08-0.15c0.03,0,0.07-0.01,0.1-0.01c0.07,0,0.14,0,0.21,0
		c0.39,0.02,0.78,0.09,1.17,0.15c0.13,0.02,0.26,0.06,0.39,0.11c0.34,0.14,0.86,0.31,1.21,0.55c0.31,0.21,0.6,0.45,0.89,0.68
		c0.05,0.04,0.1,0.08,0.15,0.13c0.31,0.3,0.58,0.7,0.82,1.02c0.07,0.1,0.14,0.2,0.2,0.31c0.2,0.38,0.37,0.77,0.5,1.18
		c0.13,0.4,0.16,0.86,0.19,1.26c0,0.05,0.01,0.09,0,0.14c-0.01,0.18-0.05,0.4-0.07,0.55c-0.02,0.14-0.04,0.37-0.07,0.54
		c-0.08,0.38-0.25,0.76-0.46,1.09c-0.41,0.63-0.82,1.08-1.47,1.46c-0.02,0.01-0.04,0.02-0.06,0.03c-0.21,0.1-0.67,0.29-0.89,0.37
		c-0.01,0-0.02,0.01-0.04,0.01c-0.05,0.02-0.1,0.03-0.15,0.04c-0.39,0.07-0.9,0.18-1.33,0.13c-0.46-0.05-0.97-0.09-1.43-0.24
		c-0.1-0.03-0.19-0.06-0.29-0.1c-0.39-0.15-0.78-0.32-1.17-0.49c-0.56-0.26-1.08-0.59-1.59-0.93c-0.54-0.32-0.96-0.75-1.28-1.28
		l-0.36-0.85C309.05,183.37,309.05,182.73,309.22,182.1z M288.03,738.87c1.46-1.28,3.37-1.61,5.12-0.66
		c6.88,3.7,11.84,9.2,16.31,15.5c4.44,6.24,8.56,12.56,15.79,15.82c16.72,7.55,36.06,2.09,53.66,4.29c4.43,0.55,4.69,7.39,0,7.14
		c-18.14-0.97-37.96,3.48-55.29-3.58c-7.61-3.1-13-8.35-17.82-14.86c-4.29-5.79-8.15-11.35-14.03-15.3
		c-7.85,9.65-5.33,24.21-3.86,35.78c0.7,5.55-8.05,5.51-8.72,0C277.36,768.01,275.41,749.92,288.03,738.87z M380.76,800.79
		c-35.78,3.33-70.45,13.28-102.62,29.25c-5.53,2.75-10.4-5.55-4.85-8.31c32.79-16.27,67.78-26.47,104.19-30.22
		c36.38-3.75,72.91-1.22,109.1,3.23c5.14,0.63,5.32,8.69,0,8.21C451.47,799.8,415.95,797.51,380.76,800.79z M404.23,1126.55
		c0.82,0.76,1.62,1.54,2.4,2.33c5.83,5.89,10.67,12.69,14.47,20.05c3.16,6.12,5.61,12.56,7.7,19.11c5.02,9.79,9.8,19.71,14.73,29.55
		c7.78,15.54,16.13,30.81,24.75,45.91c2.64,4.61-4.06,10.17-7.55,5.83c-21.85-27.18-33.82-60.72-50.71-90.94
		c-3.79-6.78,6.61-12.84,10.39-6.08c1.94,3.47,3.82,6.97,5.67,10.48c-1.94-5.41-4.2-10.71-6.98-15.74
		c-4.09-7.41-9.3-14.11-15.48-19.9C403.22,1126.78,403.83,1126.17,404.23,1126.55z M462.63,1360.53
		c-23.56,38.2-28.79,84.35-32.71,128.13c-0.34,3.78-3.62,5.58-6.56,5.39c-0.51,7.09-0.97,14.19-1.34,21.29
		c-0.36,6.72-0.65,13.44-0.92,20.17c-0.16,3.99-0.29,7.99-0.51,11.98c-0.03,0.55-0.89,0.55-0.86,0c0.04-0.69,0.07-1.37,0.1-2.06
		c0.21-4.79,0.36-9.58,0.55-14.36c0.29-7.37,0.65-14.73,1.07-22.09c0.29-5.02,0.62-10.04,0.98-15.06c-2.24-0.5-4.04-2.24-3.78-5.25
		c3.61-42.52,7.3-90.48,31.92-126.87c2.11-3.45,4.52-6.72,7.38-9.57c3.91-3.89,8.77-6.93,14.3-7.74c6.13-0.9,12.21,0.94,17.58,3.83
		c0.52,0.28,0.06,1.07-0.46,0.79c-1.46-0.79-2.96-1.5-4.51-2.09c-5.29-2.02-11.04-2.55-16.44-0.63c-4.31,1.54-7.96,4.42-11.03,7.77
		C460.96,1353.17,465.13,1356.48,462.63,1360.53z M293.17,957.02c1.03-0.88,2.09-1.73,3.17-2.54c7.37-5.53,16.13-9.2,25.43-9.32
		c8.47-0.11,16.69,2.67,23.97,6.87c7.15,4.13,13.5,9.55,19.2,15.51c1.91,0.92,3.8,1.87,5.66,2.88c6.58,3.57,12.83,7.83,18.4,12.84
		c4.97,4.46,10.91,10.2,12.48,16.91c1.1,4.68-4.14,7.15-7.57,4.41c-2.82-2.26-5.16-5.1-7.54-7.92c3.4,5.92,6.43,12.04,9.01,18.36
		c0.22,0.53-0.65,0.77-0.86,0.24c-0.34-0.84-0.7-1.67-1.06-2.49c-3.06-6.97-6.66-13.71-10.68-20.19c-0.83-0.88-1.68-1.73-2.59-2.52
		c-4.97-4.31-10.59-7.85-16.39-10.92c-12.21-6.46-25.47-10.63-38.76-14.22c-6.71-1.81-3.85-12.21,2.87-10.41
		c11.69,3.13,23.36,6.77,34.39,11.8c-5.76-5.76-12.17-10.94-19.4-14.72c-7.33-3.82-15.53-6.04-23.83-5.34
		c-9.47,0.8-18.08,5.37-25.22,11.44C293.38,958.09,292.7,957.42,293.17,957.02z M280.33,1127.29c-4.32-1.98-7.28-7.26-10.4-10.74
		c-3.18-3.56-6.51-7-10.13-10.12c-7.29-6.29-16.05-10.85-25.73-11.8c-3.48-0.34-5.45-2.92-5.91-5.65c-1.31,0.32-2.61,0.68-3.89,1.08
		c-0.55,0.17-0.78-0.69-0.24-0.86c1.33-0.42,2.68-0.8,4.03-1.12c-0.15-3.27,1.84-6.45,6-6.02c11.91,1.21,22.33,5.76,31.68,13.19
		c4.52,3.59,8.63,7.65,12.44,11.98c3.43,3.91,8.89,8.89,9.86,14.14C288.93,1126.04,284.62,1129.25,280.33,1127.29z M279.3,1006.89
		c-11.02,2.49-21.46,7.85-30.32,14.82c-4.55,3.57-10.63-0.8-9.97-5.02c-0.57,0.43-1.14,0.87-1.7,1.31
		c-0.42,0.33-1.02-0.26-0.59-0.59c0.91-0.72,1.84-1.42,2.77-2.1c0.32-0.58,0.79-1.14,1.44-1.65c10.79-8.49,23.24-15.36,36.81-18.1
		c12.69-2.56,27.98-1.99,37.35,8.14c1.05,1.14,1.29,2.77,0.94,4.24c0.26,0.15,0.53,0.29,0.8,0.44c0.44,0.25,0.04,0.93-0.4,0.68
		c-0.21-0.12-0.43-0.23-0.64-0.35c-0.77,1.94-2.62,3.32-4.97,2.35C300.35,1006.74,290.57,1004.35,279.3,1006.89z M320.26,1048.89
		c0.77,6,1.97,11.95,2.91,17.93c0.47,2.98-1.05,5.28-3.14,6.51c0.01,3.25-0.1,6.51-0.36,9.78c-0.06,0.77-1.27,0.78-1.21,0
		c0.15-1.86,0.25-3.72,0.32-5.59c0.04-1.21,0.06-2.41,0.06-3.62c-3.01,1.1-6.57,0.13-7.2-3.9c-1.7-10.93-5.9-24.02-2.77-35.04
		c0.97-3.41,2.74-5.81,5-7.42c0.01-0.53,0.05-1.06,0.12-1.58c0.22-1.59,0.93-3.11,2.5-3.73c2.07-0.81,4.58-0.05,6.57,0.62
		c2.72,0.92,5.37,2.04,7.91,3.35c10.95,3.23,20.18,8.89,27.08,18.1c13.17,17.57,18.02,41.52,21.73,62.73
		c0.33,1.89-0.6,3.64-1.96,4.74c0.14,1.09,0.28,2.18,0.44,3.27c0.54,3.7,1.21,7.39,2.05,11.03c0.17,0.74-0.95,1.06-1.15,0.32
		c-0.47-1.77-0.91-3.54-1.27-5.33c-0.57-2.81-0.99-5.65-1.37-8.49c-1.87,0.8-4.04,0.44-5.12-2c-9.25-20.93-9.89-48.12-27.27-64.74
		c-4.4-4.21-9.98-6.65-15.72-8.5c-2.08-0.67-4.54-1.52-6.77-1.14c-1.1,0.19-0.96,0.05-1.45,1.28
		C319.07,1040.32,319.82,1045.49,320.26,1048.89z M383.31,1200.73c-8.64-17.46-20.98-32.14-35.79-44.7
		c-2.29-1.94-2.43-4.39-1.41-6.4c-5.49-3.42-11.14-6.58-16.86-9.59c-0.46-0.24-0.05-0.94,0.41-0.7c1.02,0.54,2.04,1.08,3.06,1.63
		c4.68,2.51,9.3,5.14,13.81,7.95c1.93-2.82,6.21-4.39,9.6-1.5c15.47,13.18,28.58,28.94,37.57,47.24
		c8.87,18.06,13.96,37.44,16.98,57.27c0.89,5.82-7.33,8.43-9.03,2.49c-1.47-5.12-2.91-10.28-4.4-15.43
		c1.75,10.32,4.04,20.59,8.27,30.21c0.19,0.42-0.44,0.79-0.63,0.37c-0.56-1.25-1.09-2.51-1.59-3.79
		c-4.15-10.6-6.17-21.85-7.91-33.06C392.1,1221.77,388.37,1210.95,383.31,1200.73z M384.05,1771.44
		c-6.97,20.66-13.03,41.61-20,62.26c-2.28,6.76-12.99,3.89-10.75-2.96c6.76-20.72,12.62-41.72,19.38-62.44
		C375.02,1761.1,386.48,1764.24,384.05,1771.44z M380.97,1420.48c0.47,0.94,0.97,1.86,1.48,2.78c0.26,0.45-0.44,0.86-0.7,0.41
		c-0.62-1.08-1.22-2.18-1.79-3.3c-0.13-0.25-0.24-0.52-0.37-0.77c-0.3-0.32-0.57-0.69-0.78-1.17c-1-2.31-1.83-4.62-2.54-6.95
		c-1.72-5.28-2.73-10.77-2.87-16.36c0-0.02,0-0.04,0-0.06c-1.4-25.47,10.15-51.35,20.13-74.39c1.9-4.38,6.51-3.89,9.24-1.24
		c3.18-6.28,6.12-12.69,8.41-19.36c0.19-0.56,1.09-0.32,0.89,0.25c-0.34,0.99-0.69,1.97-1.06,2.94c-2.17,5.79-4.79,11.39-7.59,16.9
		c1.41,1.78,2.02,4.23,0.88,6.81c-12.3,27.84-25.06,57.14-17.45,88.06C387.74,1418.59,383.8,1421.41,380.97,1420.48z
		 M386.87,1521.27l-0.2-67.02c-0.01-2.8,2.95-3.68,4.84-2.68c0.1-0.3,0.2-0.6,0.29-0.9c0.99-3.01,2.02-6,3.02-9.01
		c2-6.01,3.85-12.12,4.71-18.41c0.93-6.76,0.59-13.61-1.16-20.22c-0.14-0.54,0.69-0.76,0.83-0.23c1.91,7.24,2.13,14.72,0.93,22.11
		c-1.02,6.27-2.95,12.35-4.97,18.36c-0.99,2.94-2,5.88-2.96,8.83c0.51,0.51,0.84,1.22,0.84,2.15l-0.2,67.02
		C392.85,1525.13,386.88,1525.12,386.87,1521.27z M482.25,1801.98c-9.08-15.15-16.94-30.77-23.56-47.14
		c-2.5-6.18,7.53-8.86,9.98-2.75c6.24,15.55,13.82,30.36,22.38,44.74C494.43,1802.49,485.62,1807.61,482.25,1801.98z M485.9,1644.77
		c-2.74,4.79-9.65,0.58-7.31-4.27c3.97-8.22,7.48-16.63,10.58-25.18c-3.12,7.54-6.83,14.82-11.33,21.69
		c-8.76,13.36-20.39,24.55-34.17,32.65c-15.5,9.1-33,14.2-50.63,17.16c-0.59,0.1-0.84-0.8-0.25-0.9c2.41-0.4,4.82-0.84,7.22-1.33
		c16.96-3.45,33.64-9.2,48.14-18.82c13.42-8.91,24.34-20.97,32.38-34.9c10.18-17.62,15.59-37.27,19.7-57.06
		c1.75-8.42,3.23-16.9,4.47-25.41c3.85-33.85,2.23-68.42-4.13-101.77c-0.9-4.71,3.8-7.55,7.23-6.6c-0.61-8.22-1.36-16.42-2.28-24.61
		c-0.06-0.52,0.76-0.52,0.82,0c0.38,3.32,0.74,6.65,1.07,9.97c0.5,4.99,0.91,9.99,1.29,14.99c1.12,0.59,1.99,1.68,2.32,3.36
		C523.83,1510.09,520.06,1585.01,485.9,1644.77z M515.33,1178.42c-13.48-12.65-26.84-25.6-39.7-39.04c-3-2.08-5.95-4.24-8.8-6.51
		c-7.96-6.37-14.96-13.83-21.03-22.01c-5.64-7.6-10.45-15.77-14.88-24.12c-5.08-6.92-9.97-13.99-14.58-21.25
		c-1.51-2.37-0.73-4.64,0.91-6.02c-0.29-0.58-0.57-1.16-0.86-1.74c-0.25-0.5,0.5-0.94,0.75-0.44c0.28,0.56,0.55,1.11,0.83,1.67
		c2.16-1.29,5.23-1.22,6.99,1.49c13.77,21.12,29.81,40.43,46.98,58.85c13.22,14.18,27.09,27.76,40.16,42.08
		c6.16,3.98,12.19,8.14,17.95,12.69c0.41,0.33-0.17,0.9-0.58,0.58c-1.2-0.94-2.42-1.86-3.64-2.77c-3.7-2.74-7.49-5.34-11.33-7.86
		c2.4,2.68,4.78,5.37,7.11,8.11C525.29,1176.46,519.56,1182.38,515.33,1178.42z M567.93,1475.98c-0.24,4.44-7.45,5.96-8.18,1.11
		c-3.27-21.99-8.96-42.38-17.53-62.9c-8.48-20.32-17.73-40.45-23.15-61.86c-1.08-4.27,3.04-6.85,6.29-6.11
		c-0.44-2.02-0.83-4.05-1.16-6.1c-0.09-0.55,0.76-0.79,0.85-0.23c0.19,1.19,0.4,2.39,0.63,3.57c0.2,1.03,0.41,2.06,0.64,3.08
		c1.12,0.53,2.03,1.54,2.44,3.11c3.69,14.36,9.18,28.03,14.94,41.61c0.13,0.26,0.26,0.52,0.38,0.79c3.81,7.8,7.56,15.63,10.73,23.71
		c0.83,2.12,1.71,4.26,2.37,6.44c0.5,1.63,0.91,3.28,1.29,4.94C564.29,1442.85,568.83,1459.39,567.93,1475.98z M588.98,1290.82
		c-0.3,1.58-0.64,3.15-1.01,4.71c-1.61,37.34-13.44,75.18-3.74,112.27c0.83,3.17-1.54,5.18-4.01,5.29c0.14,0.47-0.59,0.67-0.74,0.2
		c-0.03-0.08-0.05-0.16-0.07-0.24c-1.48-0.2-2.87-1.12-3.49-2.95c-5.08-14.91-6.1-30.06-5.38-45.31c-0.02-6.62,0.57-13.23,1.7-19.76
		c3.75-32.23,10.74-64.63-0.7-95.94c-1.73-4.73,3.59-7.37,7.22-5.64c-3.82-5.05-8.42-9.56-13.35-13.55
		c-0.46-0.37,0.19-1.02,0.65-0.65c1.31,1.06,2.6,2.15,3.85,3.28c8.36,7.52,15.28,16.77,18.47,27.67
		C591.28,1270.16,590.9,1280.7,588.98,1290.82z M706.93,808.47c-80.41,18.75-163.42,26.83-245.87,20.82c-4.73-0.34-4.75-7.74,0-7.4
		c23.22,1.69,46.5,2.3,69.77,1.83c82.44-1.67,164.09-16.85,242.91-40.6c4.2-1.26,5.95,5.24,1.8,6.54
		C752.9,796.73,730.03,803.08,706.93,808.47z M803.25,1325.43c-1.66,6.03-7.86,9.11-13.75,7.81c-7.49-1.66-15.32-0.38-22.92-1.24
		c-7.17-0.81-13.97-3.3-20.3-6.73c-11.52-6.25-22.09-16.86-19.08-30.98c2.13-9.96,10.99-15.8,20.94-15.35
		c9.82,0.44,19.17,4.58,27.9,8.74c3.92,1.87,7.77,3.8,11.39,6.22c2.1,1.4,4.14,2.83,6.12,4.41c0.83,0.66,3.68,2.89,1.26,1.04
		c3.9,2.98,5.83,7.16,3.91,11.93c-0.2,0.5-0.45,0.97-0.73,1.41C802.29,1315.09,804.55,1320.69,803.25,1325.43z M756.8,832.52
		c-3.93,2.18-7.45-3.85-3.52-6.02c34.1-18.88,69.67-35,106.72-47.19c4.03-1.33,5.7,4.97,1.74,6.32
		C825.41,798.04,790.39,813.93,756.8,832.52z M887.71,1427c-11.05-3.91-21.98-8.73-31.93-14.95c-7.87-4.92-16.43-11.07-20.86-19.49
		c-0.73-1.38-1.16-2.99-1.3-4.63c-0.62-0.17-1.24-0.34-1.85-0.52c-13.25-4.02-7.6-24.74,5.73-20.78c9.31,2.77,18.91,3.97,26.99,4.99
		c11.26,1.42,22.6,2.69,33.69,5.15c21.78,4.82,43,15.59,52.66,36.8c1.91,4.2,2.32,10.13-1.74,13.45
		C932.36,1440.71,906.04,1433.49,887.71,1427z M1018.18,1463.34c-6.72,5.91-15.59,5.37-23.62,2.85c-9.98-3.13-23.3-11.57-34.27-8.78
		c-1.76,1.67-4.21,2.75-7.35,2.75c-0.52,0-1.04,0-1.56,0c-10.6,0.01-15.65-15.59-5.6-20.69c2.09-1.06,4.19-1.89,6.31-2.55
		c4.11-2.8,8.82-4.8,13.39-6.72c6.76-2.83,13.53-5.28,20.82-6.27c14.48-1.97,33.19,4.51,37.49,20.13
		C1025.72,1451.08,1023.63,1458.55,1018.18,1463.34z M660.14,1861.94c0.88-0.82,1.76-1.65,2.65-2.47c0.82-0.77,1.64-1.54,2.45-2.3
		c-1.29-1.54-1.59-3.79,0.34-5.53c35.32-31.84,68.51-65.74,100.26-101.13c3.22-3.59,8.13,1.6,5.21,5.21
		c-29.87,36.93-64.1,70.29-99.34,102.04c-1.89,1.7-4.19,1.35-5.74,0.11c-1.7,1.6-3.39,3.2-5.1,4.8
		C660.39,1863.11,659.66,1862.39,660.14,1861.94z M696.27,1857.65c-0.12,0.13-0.25,0.25-0.37,0.38
		c-15.56,19.61-32.29,38.21-51.43,54.47c-3.54,3.01-8.69-2.09-5.13-5.13c22.78-19.44,42.31-42.27,60.75-65.78
		c2.39-3.04,7.66,1.07,5.34,4.12c-0.95,1.25-1.9,2.5-2.86,3.75c4.21-4.53,8.4-9.08,12.54-13.68c5.76-6.4,11.44-12.86,17.05-19.38
		c0.37-0.42,0.97,0.19,0.61,0.61c-0.7,0.83-1.41,1.65-2.11,2.47c-5.6,6.53-11.28,12.99-17.04,19.38
		C707.93,1845.2,702.14,1851.46,696.27,1857.65z M789.28,1776.15c-0.58,0.91-1.17,1.82-1.75,2.73c-4.63,7.24-9.21,14.52-13.74,21.83
		c-4.48,7.22-8.91,14.46-13.32,21.71c-4.41,7.26-8.8,14.54-13.18,21.82c-3.5,5.81-7,11.62-10.51,17.43
		c-5.98,10.31-12.13,20.51-18.6,30.54c-2.57,3.99-8.97,0.28-6.39-3.73c20.05-31.1,37.38-63.86,55.55-96.06
		c2.12-3.76,7.84-0.4,5.78,3.38c-6.69,12.26-13.3,24.57-20.02,36.82c2.71-4.48,5.41-8.96,8.14-13.43
		c4.43-7.26,8.88-14.49,13.38-21.7c4.56-7.3,9.18-14.57,13.85-21.79C788.8,1775.19,789.6,1775.65,789.28,1776.15z M823.54,1757.68
		c-5.24-6.62-11.32-12.57-17.28-18.52c-0.63-0.63,0.35-1.61,0.98-0.98c3.1,3.1,6.19,6.2,9.2,9.39c2.82,2.99,5.58,6.08,7.98,9.43
		C824.78,1757.52,823.93,1758.18,823.54,1757.68z M826.5,1736.1c-2.65-2.62-5.55-5.3-7.27-8.65c-0.27-0.53,0.53-1,0.8-0.47
		c1.66,3.3,4.49,5.94,7.05,8.53C827.46,1735.89,826.88,1736.48,826.5,1736.1z M1554.95,956.57c2.63-7.9,4.97-15.9,7.02-23.97
		c3.59-14.14,6.28-28.49,8.24-42.94c1.98-14.64,3.2-29.37,3.91-44.12c0.03-0.61,0.98-0.61,0.95,0c-0.36,8.34-0.89,16.67-1.64,24.98
		c-1.31,14.53-3.27,29.01-6.1,43.33c-2.87,14.56-6.63,28.94-11.32,43.02C1555.79,957.54,1554.72,957.25,1554.95,956.57z
		 M1528.91,1656.21c-2.93-4.84-5.81-9.71-8.65-14.61c-5.04-8.72-9.66-17.73-14.11-26.77c-4.62-9.37-8.92-18.9-12.81-28.6
		c-0.71-1.76,0.78-3.84,2.44-4.3c1.96-0.54,3.59,0.69,4.3,2.44c2.1,5.23,4.33,10.4,6.68,15.52c8.32,18.16,18.16,35.56,27.19,53.37
		C1535.63,1656.6,1530.87,1659.44,1528.91,1656.21z M1507.64,1134c-0.19,1.88-1.45,3.49-3.49,3.49c-1.75,0-3.68-1.61-3.49-3.49
		c0.56-5.59,1.1-11.17,1.59-16.77c0.88-10.04,1.57-20.1,1.82-30.18c0.12-5.08,0.14-10.17-0.01-15.25
		c-0.14-4.89-0.52-9.78-0.23-14.67c0.18-3.08,4.68-3.91,5.51-0.75c1.45,5.54,1.62,11.35,1.75,17.05
		C1511.54,1093.67,1509.65,1113.88,1507.64,1134z M1489.21,1079.96c0.83-10.17,2.99-20.17,6.17-29.85
		c3.14-9.55,7.21-18.77,11.54-27.84c4.65-9.74,9.6-19.33,14.27-29.07c5.26-10.98,10.15-22.12,14.32-33.56
		c0.19-0.53,1.05-0.3,0.86,0.24c-0.53,1.47-1.07,2.94-1.62,4.41c-4.16,11.06-9.01,21.84-14.16,32.47
		c-4.64,9.59-9.52,19.07-14.06,28.72c-4.25,9.05-8.18,18.28-11.11,27.85c-3.02,9.85-4.91,20.03-5.43,30.32
		c-0.61,12.01,0.61,24.03,3.02,35.8c0.13,0.66-0.87,0.94-1.01,0.28c-0.32-1.59-0.63-3.18-0.91-4.77
		C1489.06,1103.42,1488.26,1091.65,1489.21,1079.96z M1487.81,1456.46c0.3,1.28,0.6,2.56,0.9,3.85c2.4,10.12,4.93,20.22,7.54,30.29
		c2.6,10.04,5.28,20.06,7.98,30.07c2.7,10,5.42,20,8.12,30c2.7,10.02,5.36,20.04,7.94,30.09c2.59,10.09,5.08,20.19,7.42,30.34
		c0.14,0.6-0.78,0.85-0.92,0.25c-0.3-1.28-0.61-2.56-0.91-3.84c-2.42-10.12-4.96-20.21-7.57-30.28
		c-2.61-10.04-5.29-20.05-7.99-30.06c-2.7-10-5.43-20-8.12-30c-2.7-10.02-5.37-20.04-7.95-30.08c-2.59-10.08-5.1-20.19-7.46-30.33
		C1486.62,1456.08,1487.65,1455.8,1487.81,1456.46z M1475.28,1301.07c-0.3,2.09-0.61,4.18-0.93,6.26
		c-2.59,16.61-5.98,33.09-9.7,49.48c-3.68,16.18-7.68,32.28-11.5,48.43c-3.75,15.86-7.33,31.77-10.22,47.82
		c-2.86,15.89-4.95,31.7-6.06,47.83c-1.14,16.55-0.98,33.18,0.54,49.7c0.12,1.35-1.11,2.45-2.32,2.63
		c-1.16,0.17-2.76-0.62-2.94-1.92c-0.29-2.17-0.57-4.34-0.82-6.51c-1.88-16.56-1.93-33.32-0.82-49.94
		c1.1-16.42,3.61-32.76,6.66-48.92c3.05-16.11,6.74-32.09,10.55-48.04c3.88-16.24,7.88-32.45,11.5-48.76
		c3.67-16.53,6.93-33.16,9.33-49.92c0.27-1.88,2.66-2.89,4.3-2.44C1474.82,1297.32,1475.55,1299.2,1475.28,1301.07z
		 M1471.88,1246.19c3.49-15.99,6.26-32.15,7.97-48.43c0.07-0.63,1.07-0.64,1,0c-0.22,2.06-0.45,4.12-0.69,6.18
		c-1.94,16.03-4.87,31.93-8.46,47.68c-3.59,15.8-7.83,31.44-12.33,47c-4.5,15.56-9.27,31.05-13.93,46.56
		c-4.67,15.56-9.24,31.15-13.33,46.88c-4.06,15.63-7.63,31.39-10.35,47.32c-0.11,0.63-1.07,0.36-0.96-0.27
		c0.34-2.02,0.7-4.04,1.07-6.05c2.91-15.81,6.63-31.46,10.78-46.99c4.16-15.56,8.75-31,13.4-46.41c4.68-15.51,9.42-31,13.86-46.58
		C1464.33,1277.55,1468.44,1261.95,1471.88,1246.19z M1438.61,1245.76c0.51-2.27,0.94-4.57,1.3-6.87
		c1.79-11.32,2.08-22.81,3.45-34.18c0.08-0.64,1.08-0.65,1.01,0c-0.34,3.4-0.63,6.8-0.89,10.21c-0.86,11.18-1.56,22.45-4.26,33.38
		c-0.15,0.59-0.96,0.53-1.13,0c-1.85-5.58-1.85-12.1-0.03-17.69c0.25-0.75,1.44-0.43,1.19,0.33
		C1437.7,1235.6,1437.5,1240.91,1438.61,1245.76z M1443.32,1084.85c19.52,54.39,19.28,114.24,16.8,171.25
		c-0.1,2.31-1.6,3.63-3.31,3.97c-0.11,1.24-0.21,2.47-0.32,3.71c-0.05,0.59-0.97,0.59-0.92,0c0.08-0.98,0.16-1.96,0.25-2.93
		c0.02-0.23,0.04-0.45,0.06-0.68c-2.04-0.02-4.07-1.37-4.18-4.07c-1.6-37.6-0.07-75.77-4.58-113.08c-0.08-0.19-0.15-0.38-0.24-0.57
		c-0.1-0.23-0.04-0.44,0.09-0.6c-2.29-18.46-6.08-36.7-12.48-54.56C1432.48,1081.71,1441.34,1079.33,1443.32,1084.85z
		 M1433.25,1223.27c-0.55,5.51-0.97,11.03-1.24,16.56c-0.99,19.89-0.06,39.87,2.92,59.57c0.23,1.5-0.35,2.99-1.95,3.43
		c-1.42,0.39-3.07-0.49-3.43-1.95c-1.39-5.63-2.38-11.33-3.13-17.07c-2.6-20.07-2.15-40.44-0.16-60.54
		c0.19-1.88,1.45-3.49,3.49-3.49C1431.51,1219.78,1433.44,1221.39,1433.25,1223.27z M1420.37,1225.88
		c2.28-13.06,5.67-25.89,9.04-38.7c0.19-0.71,1.29-0.41,1.11,0.3c-1.9,7.2-3.79,14.4-5.51,21.64c-2.96,12.5-5.4,25.19-6.06,38.04
		c-0.65,12.61,0.55,25.3,4.48,37.34c0.17,0.53-0.66,0.76-0.84,0.23c-2.27-6.76-3.71-13.77-4.38-20.87
		C1417,1251.18,1418.18,1238.4,1420.37,1225.88z M1359.18,1571.52c-3.45,6.52-7.13,12.91-11.07,19.14
		c-7.04,11.13-14.93,21.76-23.81,31.48c-8.87,9.71-18.74,18.51-29.61,25.94c-0.48,0.33-0.92-0.45-0.45-0.77
		c6.04-4.19,11.77-8.8,17.2-13.75c9.66-8.81,18.32-18.69,26.07-29.21c7.78-10.56,14.65-21.77,20.79-33.35
		C1358.61,1570.42,1359.49,1570.94,1359.18,1571.52z M1401.68,1190.51c0.13-2.88,1.98-4.61,4.15-5.2c1.13-8.7,2.6-17.35,4.5-25.91
		c0.15-0.68,1.19-0.39,1.04,0.29c-0.34,1.52-0.66,3.05-0.97,4.58c-1.41,6.9-2.54,13.86-3.45,20.85c3.01-0.28,6.17,1.52,6.01,5.41
		c-2.28,56.73,1.84,113.31,1.28,170.03c-0.06,5.88-8.44,5.65-8.97,0C1400,1304.22,1399.15,1247.01,1401.68,1190.51z
		 M1391.88,1583.89c4.26-14.57,8.17-29.23,11.53-44.03c0.15-0.64,1.12-0.37,0.98,0.27c-1.91,8.37-3.98,16.69-6.2,24.98
		c-3.9,14.57-8.24,29.03-12.8,43.41c-4.53,14.31-9.3,28.55-14.07,42.78c-0.18,0.54-1.03,0.31-0.85-0.24
		c2.66-8.03,5.32-16.06,7.95-24.1C1383.1,1612.66,1387.66,1598.33,1391.88,1583.89z M1274.96,1644c1.3-1.98,2.6-3.96,3.9-5.94
		c4.86-7.39,9.73-14.77,14.57-22.18c-0.23-0.69-0.2-1.47,0.19-2.12c0.88-1.47,1.76-2.94,2.65-4.41
		c7.17-11.75,14.89-23.17,22.23-34.82c4.11-6.51,8.13-13.08,12.01-19.73c1.41-2.62,2.8-5.26,4.15-7.91
		c7.72-15.12,14.52-30.73,19.86-46.86c5.46-16.51,9.36-33.54,11.46-50.8c2.29-18.88,2.45-37.96,0.88-56.9
		c-0.06-0.71,1.05-0.71,1.11,0c0.21,2.51,0.39,5.02,0.54,7.54c1.1,18.73,0.41,37.56-2.33,56.13c-2.53,17.08-6.81,33.88-12.58,50.15
		c-2.68,7.57-5.69,15.01-8.94,22.35c4.07-8.33,7.77-16.78,10.98-25.45c4.71-12.71,8.42-25.81,10.81-39.16
		c2.48-13.84,3.45-28.05,3.03-42.24c-0.05-1.76,1.53-3.24,3.24-3.24c1.79,0,3.19,1.49,3.24,3.24c0.06,1.84,0.1,3.67,0.11,5.51
		c0.11,14.46-1.3,28.93-4.13,43.1c-2.67,13.4-6.66,26.5-11.64,39.22c-5.01,12.77-10.95,25.16-17.51,37.21
		c-6.53,12-13.62,23.69-21.04,35.16c-7.58,11.72-15.39,23.29-23.67,34.53c-0.83,1.13-2.22,1.7-3.54,0.93
		c-0.2-0.12-0.38-0.27-0.53-0.44c-6.06,9.22-12.17,18.4-18.27,27.6C1275.42,1644.94,1274.64,1644.49,1274.96,1644z M1405.12,439.11
		c-17.06,19.57-41.39,28.75-62.53,42.83c-21.84,14.54-35.56,37.14-46.68,60.31c-1.68,3.51-6.82,0.44-5.2-3.04
		c10.73-23.04,23.89-44.68,44.56-60.1c21.31-15.89,47.41-24.06,65.35-44.5C1403.33,431.53,1407.79,436.04,1405.12,439.11z
		 M1747.94,682.5c-0.18-1.58-0.36-3.15-0.54-4.73c-1.49-13.08-3-26.16-4.94-39.18c-1.94-13.06-4.3-26.07-7.46-38.9
		c-3-12.18-6.72-24.17-11.23-35.87c3.24,12.05,5.94,24.25,8.18,36.55c4.81,26.41,9.16,53.52,10.14,80.38
		c0.21,5.68-8.64,6.85-9.89,1.34c-5.89-26.07-7.7-52.97-12.53-79.25c-4.89-26.59-11.88-52.71-22.06-77.79
		c-1.77-4.36,1.6-7.27,5.31-7.5c-3.85-7.93-7.71-15.86-11.4-23.87c-0.33-0.71,0.73-1.33,1.06-0.62c0.68,1.46,1.36,2.93,2.04,4.39
		c3.17,6.74,6.43,13.44,9.68,20.14c2.23,0.27,4.39,1.55,5.43,4.13c4.14,10.21,7.75,20.6,10.91,31.11c1.94,4.56,3.79,9.16,5.53,13.8
		c4.6,12.28,8.28,24.91,11.21,37.69c2.97,12.98,5.18,26.12,6.99,39.31c1.78,12.93,3.17,25.91,4.57,38.88
		C1749,683.14,1748.01,683.12,1747.94,682.5z M1837.25,609.8c-0.52-1.29-1.04-2.58-1.57-3.86c-4.13-10.09-8.46-20.1-13.12-29.96
		c-4.54-9.61-9.41-19.07-14.72-28.28c-5.07-8.79-10.56-17.33-16.54-25.53c17.45,30.64,31.34,63.57,38.95,97.6
		c1.46,6.52-7.73,8.95-9.93,2.74c-8.47-23.92-16.91-47.92-27.96-70.8c-11.12-23.02-24.34-44.94-39.27-65.69
		c-1.43-1.99-1.43-3.94-0.61-5.53c-2.2-1.83-4.43-3.63-6.7-5.38c-0.63-0.48-0.01-1.57,0.63-1.08c1.1,0.85,2.19,1.7,3.28,2.57
		c1.17,0.94,2.33,1.89,3.49,2.85c2.43-2.91,7.83-3.86,10.77,0.23c7.79,10.83,15.24,22.09,22.21,33.7c2.64,3.33,5.21,6.71,7.68,10.17
		c6.14,8.61,11.76,17.6,16.93,26.82c5.27,9.39,10.08,19.02,14.56,28.81c4.59,10,8.82,20.15,12.87,30.37
		C1838.43,610.13,1837.48,610.37,1837.25,609.8z"/>
	<path class="st3" d="M542.1,1262.9c6.39,8.15,13.8,15.48,22.13,21.64c0.54,0.4,1.09,0.78,1.63,1.18
		c-13.36-14.15-26.12-28.87-37.84-44.35C532.22,1248.86,536.8,1256.14,542.1,1262.9z"/>
	<path class="st3" d="M418.9,1174.8c-1.78-0.75-3.62-1.4-5.48-1.75c-1.46-0.27-3.37-0.37-4.24,1.09c-0.42,0.7-0.61,1.54-0.68,2.41
		C411.48,1174.88,415.13,1174.4,418.9,1174.8z"/>
	<path class="st3" d="M721.87,629.93c-17.48-0.13-34.95,0.98-52.37,2.32c-17.63,1.35-35.24,2.92-52.9,3.79
		c-16.02,0.79-32.11,0.95-48.11-0.32c0.66,1.47-0.05,3.6-2.15,3.6c-5.29,0-10.66,0.06-15.91,0.76c-3.87,0.52-8.03,1.4-11.56,3.3
		c0.54,0.3,1.07,0.61,1.62,0.89c14.67,7.76,31.52,11.01,47.94,12.31c18.01,1.42,36.18,0.53,54.11-1.56
		c16.41-1.91,32.62-5.02,48.71-8.76c21.84-5.07,44.03-10.29,66.59-7.68c6.02,0.7,11.92,1.99,17.85,3.2
		c5.73,1.17,11.46,2.37,17.2,3.54c6.27,1.27,12.55,2.5,18.85,3.59c-12.49-6.34-25.75-10.95-39.48-13.95
		C755.72,631.35,738.77,630.06,721.87,629.93z"/>
</g>
</svg>
