<?xml version="1.0" encoding="utf-8"?>
<svg version="1.1" xmlns="http://www.w3.org/2000/svg" xmlns:xlink="http://www.w3.org/1999/xlink" x="0px" y="0px" width="2000px"
	 height="2000px" viewBox="0 0 2000 2000" style="enable-background:new 0 0 2000 2000;" xml:space="preserve">
<g id="Layer_3">
	<path class="st1" d="M1406.53,504.39c-1.51,0.1-1.61,0.21,0.71,0.26C1407,504.56,1406.77,504.47,1406.53,504.39z M1406.53,504.39
		c-1.51,0.1-1.61,0.21,0.71,0.26C1407,504.56,1406.77,504.47,1406.53,504.39z M1406.53,504.39c-1.51,0.1-1.61,0.21,0.71,0.26
		C1407,504.56,1406.77,504.47,1406.53,504.39z M1406.53,504.39c-1.51,0.1-1.61,0.21,0.71,0.26
		C1407,504.56,1406.77,504.47,1406.53,504.39z M1406.53,504.39c-1.51,0.1-1.61,0.21,0.71,0.26
		C1407,504.56,1406.77,504.47,1406.53,504.39z M1406.53,504.39c-1.51,0.1-1.61,0.21,0.71,0.26
		C1407,504.56,1406.77,504.47,1406.53,504.39z M1406.53,504.39c-1.51,0.1-1.61,0.21,0.71,0.26
		C1407,504.56,1406.77,504.47,1406.53,504.39z M1406.53,504.39c-1.51,0.1-1.61,0.21,0.71,0.26
		C1407,504.56,1406.77,504.47,1406.53,504.39z M1406.53,504.39c-1.51,0.1-1.61,0.21,0.71,0.26
		C1407,504.56,1406.77,504.47,1406.53,504.39z M1406.53,504.39c-1.51,0.1-1.61,0.21,0.71,0.26
		C1407,504.56,1406.77,504.47,1406.53,504.39z M1406.53,504.39c-1.51,0.1-1.61,0.21,0.71,0.26
		C1407,504.56,1406.77,504.47,1406.53,504.39z M1406.53,504.39c-1.51,0.1-1.61,0.21,0.71,0.26
		C1407,504.56,1406.77,504.47,1406.53,504.39z M1406.53,504.39c-1.51,0.1-1.61,0.21,0.71,0.26
		C1407,504.56,1406.77,504.47,1406.53,504.39z M1406.53,504.39c-1.51,0.1-1.61,0.21,0.71,0.26
		C1407,504.56,1406.77,504.47,1406.53,504.39z M1406.53,504.39c-1.51,0.1-1.61,0.21,0.71,0.26
		C1407,504.56,1406.77,504.47,1406.53,504.39z M1406.53,504.39c-1.51,0.1-1.61,0.21,0.71,0.26
		C1407,504.56,1406.77,504.47,1406.53,504.39z M1406.53,504.39c-1.51,0.1-1.61,0.21,0.71,0.26
		C1407,504.56,1406.77,504.47,1406.53,504.39z M1406.53,504.39c-1.51,0.1-1.61,0.21,0.71,0.26
		C1407,504.56,1406.77,504.47,1406.53,504.39z M1406.53,504.39c-1.51,0.1-1.61,0.21,0.71,0.26
		C1407,504.56,1406.77,504.47,1406.53,504.39z M1406.53,504.39c-1.51,0.1-1.61,0.21,0.71,0.26
		C1407,504.56,1406.77,504.47,1406.53,504.39z M1696.63,481.5c35.83-12.86,56.29-49.64,73.59-83.54
		c28.43-55.71,56.85-111.41,85.28-167.12c-42.87,29.33-82.93,62.75-119.47,99.67c-0.44-13.85-5.33-27.53-13.78-38.52
		c-25.34,5.13-49.38,16.51-69.42,32.84c0.02-10.02,0.03-20.05,0.05-30.08c-21.79,10.41-18.61,41.44-18.07,65.58
		s-20.16,55.64-40.44,42.54c-6.22-4.02-9.49-11.18-12.52-17.94c-47.58-106.21-111.48-205.1-188.77-292.12
		c-11.92-13.42-32.84-27.08-45.55-14.41c-4.51,4.51-6.07,11.11-7.29,17.38c-24.83,127.29,14.34,265.43,102.28,360.75
		c-51.5-17.49-109.38-15.41-159.49,5.75c49.86,48.46,99.72,96.92,149.58,145.38c9.69,9.42,16.54,30.06,3.21,32.31
		c-47.92-19.4-98.56,25.37-119.87,72.47c-21.31,47.11-29.77,102.14-65.9,139.12c10.69,1.21,21.38,2.42,32.06,3.63
		c2.91,37.61-37.33,68.29-74.97,65.88c-37.65-2.42-69.79-29.21-91.24-60.24c-59.37-85.94-51.97-205.65-3.11-297.97
		c23.55-44.5,56.76-87.91,55.86-138.24c-0.49-27.5-30.47-59.87-50.46-40.98c-17.25,16.32,1.15,46.49-7.41,68.64
		c-12.17,31.5-65.34,15.41-75.48-16.81c-10.14-32.21,4.08-66.34,9.31-99.71c7.37-46.99-5.09-98.37-39-131.74
		c-33.9-33.36-90.28-44.32-131.09-19.89c-40.81,24.44-56.64,85.56-27.72,123.32c9.64,12.59,22.96,21.89,33.38,33.84
		c21.11,24.18,28.27,62.2,10.62,89.01c-17.66,26.81-62.35,33.01-82.15,7.74c-8.41-10.74-13.42-26.56-26.73-29.52
		c-15.9-3.54-27.44,14.05-40.93,23.18c-13.48,9.14-39.79-6.35-18.88-6.57c-31.28-9.63-68.46,7.79-81.09,37.99
		c-6.61,15.83-6.88,33.46-9.44,50.42c-4.12,27.21-15.56,54.88-38.1,70.66c-26.92,18.85-62.73,16.75-95.47,13.88
		c-4.68-0.41-9.71-0.97-13.23-4.08c-3.52-3.11-4.17-9.74-0.86-12.27c0.8,0,1-0.19,1.73-1.39c47.52-77.79,74.8-167.84,78.42-258.93
		c-67.59-26.8-97.63-120.68-58.17-181.74c-27.63,24.32-68.85,32.02-103.39,19.31c-34.54-12.71-60.95-45.3-66.23-81.72
		c-8.39,33.85-21.51,66.52-38.85,96.78c-7.32,12.76-16.37,25.9-30.24,30.78c-12.3,4.33-28.62-1.83-32.25-13.52
		c6.19,37.48,20.1,73.67,40.64,105.63c-11.53,1.5-23.05,2.99-34.58,4.49c9.38,44.15,35.73,84.48,72.4,110.79
		c1.76,8.83,3.52,17.65,5.28,26.48c8.45,13.15,16.9,26.3,25.35,39.45c8.51,13.24,17.33,27.55,16.86,43.28
		c-0.47,15.72-14.94,31.9-30.14,27.84c15.92-39.68,2.19-89.19-31.88-115.01c-29.86,11.73-59.73,23.47-89.59,35.2
		c5.43,9.39,6.98,20.74,4.93,31.37c-0.03,0.13-0.05,0.27-0.08,0.41c-1.57,7.76-5.07,15.11-10.37,21.01
		c15.7-0.48,31.4-0.96,47.1-1.44c-15.42,53.39,39.31,100.25,52.2,154.31c14.72,61.73-27.42,122.49-74.09,165.5
		c68.75-7.46,106.39-81.81,131.66-146.17c37.57,3.8,72.84,26.03,92.48,58.3c-2.71,27.1-29.98,49.24-57.06,46.31
		c27.06,18.8,64.5,21.45,93.95,6.65c34.88-17.53,54.79-67.88,29.01-97.2c22.64,17.47,42.88,39.99,50.3,67.6
		c7.42,27.62-0.92,60.77-25.03,76.15c-16.42,10.48-39.82,13.63-47.81,31.4c-7.08,15.75,2.44,33.42,8.93,49.43
		c6.5,16,7.5,38.88-8.24,45.99c-54.66-44.51-113.42-83.97-175.3-117.74c-6.47-3.53-14.11-7.08-20.92-4.27
		c-10.79,4.46-10.15,19.55-9.46,31.19c2.25,37.65-14.37,73.57-30.59,107.62c-12.74,26.72-39.96,58.44-65.32,43.17
		c-14.25-8.58-25.09-31.05-40.25-24.18c-5.38,2.43-8.5,8.2-9.87,13.94c-7.21,30.08,27.75,57.47,58.3,52.64s53.42-31.07,67.18-58.77
		c13.75-27.7,21.23-58.33,36.53-85.21c4.03-7.07,9.07-14.25,16.67-17.16c17.04-6.52,33.12,11.49,40.92,27.99
		c7.79,16.49,16.96,36.6,35.1,38.59c12.5,1.36,25.9-6.94,37.12-1.26c9.65,4.89,12.01,17.24,16.9,26.89
		c15.35,30.28,55.94,34.13,89.7,37.81c33.75,3.68,74.96,19.91,75.73,53.85c-33.63-24.49-79.39-20.73-120.71-15.89
		c-61.73,7.23-125.77,15.26-178.37,48.36c-38.79,24.41-69.17,61.92-85,104.93c-16.1,43.74-17.15,91.92-9.79,137.94
		c8.1,50.66,26.22,99.7,53.01,143.46c10.68,17.46,23.02,34.8,26.35,55c3.32,20.2-6,44.37-25.76,49.71
		c-11.28,3.05-23.46-0.52-34.88,1.97c-11.41,2.49-21.54,17.18-13.2,25.37c-15.85,2.66-31.69,5.31-47.54,7.97
		c-15.55,49.59-10.03,105.41,14.93,151c36.65-9.35,78.04,3.32,103.18,31.57c13.96-15.74,34.79-25.18,55.84-25.29
		c5.21-25.01,10.42-50.01,15.62-75.02c1.83-8.76,3.66-17.82,1.94-26.61c-3.99-20.39-26.36-36.9-21.41-57.08
		c-13.7,12.23-37.34-1.67-40.98-19.67c-3.63-18,5.48-35.86,14.3-51.97c19.05,13.62,40.28-16.41,40.29-39.83
		c0-23.42-2.39-53.7,19.08-63.07c6.66,60.35,13.32,120.7,19.98,181.06c2.24,20.34,4.83,41.63,16.47,58.46
		c11.65,16.83,35.48,27.13,53.24,16.96c-0.9,16.53-1.79,33.06-2.68,49.59c-52.72-2.63-87.38,57.29-90.65,109.97
		c-0.36,5.84-0.28,12.35,3.67,16.67c3.72,4.06,9.7,4.92,15.19,5.41c76.58,6.87,155.13-10.01,222.12-47.75
		c48.18,21.43,103.66,0.53,152.11-20.28c10.4-4.47,21.22-9.24,28.44-17.96c13.67-16.5,9.88-41.72-0.54-60.44
		c-10.42-18.72-26.32-33.9-37.08-52.43c-22.37-38.5-20.04-86.23-33.43-128.7c-14.04-44.57-44.85-81.78-64.33-124.26
		c-30.17-65.8-31.81-140.6-32.92-212.98c19.1,18.35,47.94,25.9,73.58,19.27c20.81,31.79,50.62,57.61,85.05,73.67
		c-21.16,30.57-19.99,74.82,2.75,104.23c3.16-12.77,6.31-25.53,9.47-38.3c18.19,22.05,36.39,44.09,54.58,66.13
		c2.05-16.39,4.1-32.78,6.16-49.18c19.71-9.77,39.91,15.7,40.44,37.69c0.53,21.99-8.2,44.66-1.13,65.49
		c8.28,24.4,35.42,37.76,46.47,61.03c10.76,22.66,4.1,49.48-4.19,73.16c-8.29,23.67-18.21,48.46-13.35,73.07
		c4.87,24.61,32.33,46.37,54.71,35.04c33.55-16.97,17.91-81.24,53.24-94.1c-1.56,31.08,7.32,73.81,47.64,85.36
		c53.55-59.15,113.75-112.28,179.1-158.06c22.26-15.59,47.73-30.99,74.69-27.54c30.38,3.88,53.45,31.98,59.93,61.92
		s-0.52,61.14-10.24,90.19c-22.03,65.81-75.99,135.96-144.49,124.78c-16.18-2.65-31.55-9.84-47.92-10.64
		c-16.37-0.81-35.31,7.88-37.81,24.08c-4.05,26.34,33.01,36.67,59.63,35.62c63.87-2.53,133.71-10.85,177.95-56.98
		c57.18-59.63,49.63-159.48,101.86-223.49c4.12,39.57,11.91,78.76,23.26,116.89c4.83-19.87,9.66-39.74,14.48-59.61
		c6.37,15.23,23.24,25.35,39.68,23.8c-6.86-30.07-18.63-59.01-34.71-85.32c23.37-3.79,44.76-18.44,56.72-38.87
		c-13.57-10.31-22.98-25.96-25.73-42.78c12.02-2,24.59-0.61,35.89,3.96c-2.37,8.61-4.75,17.23-7.12,25.84
		c3.54,13.35,7.09,26.7,10.63,40.05c9.28-17.85,14.52-37.78,15.24-57.88c0.54,13.37,12.73,25.2,26.11,25.35
		c-0.44,9.27-0.88,18.54-1.32,27.81c14.35,4.1,25.73-15.62,20.94-29.75c-4.8-14.13-18.23-23.09-29.69-32.64
		c-11.47-9.54-22.49-23.19-19.52-37.81c2.36-11.59,12.75-19.64,18.28-30.08c10.96-20.69,1.31-45.61-5.26-68.08
		c-6.57-22.46-7.12-52.06,13.33-63.45c13.35,26.93,46.31,42.5,75.59,35.71c-11.68-10.22-23.37-20.44-35.05-30.66
		c16.35,8.12,32.7,16.24,49.05,24.35c-21.02-57.8-67.88-105.66-125.23-127.9c3.23,23.58,15.88,45.74,34.55,60.51
		c-22.48,7.51-49.63-3.5-60.52-24.55c1.33,11.04,2.66,22.08,3.99,33.12c-3.11,20.84-6.23,41.68-9.34,62.52
		c-30.37-10.89-17.47-55.55-6.3-85.81c28.11-76.1,8.86-170.32,60.77-232.67c-50.45,7.84-104-7.24-142.95-40.24
		c-21.15,62.82-83.73,109.34-149.98,111.48c0.15,25.83-11.53,60.42-37.12,56.91c-19.29-2.65-27.55-28.24-20.58-46.42
		c6.97-18.17,23.35-30.67,37.89-43.62c31.01-27.62,56.49-61.43,74.51-98.84c15.08-31.31,25.28-65.57,47.01-92.68
		c50.07-62.46,143.02-67.8,209.47-112.43c-17.25,24.84-34.5,49.68-51.75,74.52c46.39-12.93,88.18-41.8,116.7-80.61
		c-2.9,20.02-5.81,40.04-8.71,60.06c26.28-23.32,44.83-55.2,52.12-89.57c13.57-64-11.35-129.21-35.82-189.89
		C1721.36,542.84,1709,512.17,1696.63,481.5z M1767.83,323.6c17.83-18.45,35.78-37.02,56.58-52.04
		c-12.69,31.55-37.16,58.21-67.51,73.55C1756.81,330.3,1765.56,315.78,1767.83,323.6z M1709.78,427.96
		c19.8-19.98,39.6-39.96,59.4-59.95c0.19-0.19,0.39-0.38,0.6-0.56c1.74-0.7,3.49-1.42,5.23-2.13c2.55,2.87,0.18,7.32-2.23,10.31
		c-21.22,26.33-45.72,50.01-72.76,70.31C1699.49,438.92,1704.82,432.97,1709.78,427.96z M233.21,499.96
		c-5.78-0.23-12.19-1.73-17.34,0.12c2.99-2.34,4.77-5.92,3.87-9.45c14.28-3.22,29.37-2.78,43.45,1.26
		C253.63,496.09,243.64,500.38,233.21,499.96z M282.09,469.71c-0.78,2.13-3.09,3.25-5.26,3.89c-6.3,1.85-13.27,1.3-19.21-1.49
		c7.25-4.27,15.42-6.93,23.78-7.76C280.85,464.67,282.88,467.59,282.09,469.71z M351.15,1452.29c-4.2,12.71-8.41,25.41-12.61,38.12
		c-2.03,0.66-2.81,2.3-3.6,3.94c-4.02-4.1-9.45-6.81-15.15-7.55c5.03-17.68,10.06-35.35,15.09-53.03c0.52-1.83,1.07-3.72,2.27-5.21
		c4.14-5.12,13.3-1.64,15.72,4.48C355.28,1439.17,353.22,1446.04,351.15,1452.29z M387.35,1266.77c-2.79,5.94-10.39,7.79-16.95,7.61
		c-7.65-0.22-15.23-2.23-21.98-5.83c-1.71-0.92-3.62-2.91-2.47-4.48c0.45-0.62,1.23-0.88,1.97-1.08c5.46-1.54,11.14-2.3,16.81-2.27
		c1.56,0.01,3.57-0.23,3.97-1.75c0.17-0.62-0.02-1.27-0.21-1.88c-1.24-4.05-2.48-8.1-3.73-12.15c6.52-1.05,13.32-0.25,19.41,2.29
		C386.15,1252.96,390.37,1260.32,387.35,1266.77z M466.99,1225.2c0.51-2.21,2.88-3.58,5.15-3.69c2.26-0.12,4.45,0.74,6.56,1.58
		c1.81-5.17,4.1-10.05,6.39-14.93c0.78-1.67,1.89-3.58,3.74-3.72c2.08-0.16,3.5,2.06,4.09,4.07c3.27,11.25-4.48,22.46-11.77,31.63
		c-1.07,1.35-2.27,2.78-3.95,3.17c-3.7,0.86-6.24-3.57-7.43-7.18c-0.73-2.23-1.47-4.47-2.2-6.7
		C467.12,1228.06,466.66,1226.61,466.99,1225.2z M474.39,1321.58c-1.78,4.62-8.1,4.64-12.88,5.89c-4.9,1.27-9.23,4.58-14.28,4.93
		c-7.7,0.53-14.7-7.57-13.06-15.12c-6.41,6.92-10.91,15.6-12.86,24.82c1.97-18.42,3.94-36.83,5.91-55.26
		c0.51,2.08,1.91,4.42,4.01,5.26c3.63,1.46,7.71-0.01,11.35-1.47c8.59-3.47,17.18-6.93,25.77-10.4c0.33-2.78,0.66-5.56,0.98-8.34
		c6.77,12.04,12.57,24.63,17.33,37.6c-4.77-1.65-9.54-3.3-14.32-4.96C469.27,1309.59,476.51,1316.05,474.39,1321.58z
		 M640.51,1821.57c5.38,9.66,15.65,17.53,26.66,16.44c18.83-1.85,32.06-27.82,50.18-22.38c3.52,1.06,6.79,3.31,10.46,3.21
		c5.26-0.14,9-4.89,12.62-8.71c14.24-15.03,38.15-19.91,57.15-11.68c-54.87,24.93-109.74,49.85-164.61,74.78
		c-4.61,2.09-9.7,4.23-14.57,2.86c-8.61-2.41-10.73-13.38-15.91-20.66c-8.74-12.28-26.24-13.63-41.28-12.79
		c-29.65,1.64-59.08,7.29-87.24,16.73c-11.09,3.71-23.99,7.83-33.76,1.41c-8.78-5.76-15.29-19.55-25.16-15.98
		c14.22-11.38,34.3-17.56,49.06-15.17c19.41,3.15,39.85-0.53,56.95-10.24c5.39-3.06,10.63-6.77,16.74-7.83
		c7.61-1.32,15.22,1.69,22.59,4.01c17.48,5.52,41.88,4.06,47.57-13.37c4.99-15.28-8.89-31.41-5.73-47.17
		c1.97-9.76,10.34-18.83,7.41-28.34c-1.2-3.92-4.17-7-6.9-10.04c-17.96-19.98-29.92-45.28-33.96-71.84
		c3.89-4.17,10.37,1.3,13.18,6.26c24.32,42.95,41.21,90.09,49.69,138.72C633.55,1800.68,635.13,1811.91,640.51,1821.57z
		 M1709.15,1328.79c1.55,1.49,3.23,3.39,2.77,5.49c-0.36,1.67-3.01,2.13-3.08,2.35c-9.58-2.77-17.06-11.77-17.97-21.71
		C1697.92,1318,1703.62,1323.45,1709.15,1328.79z M1399.69,125.14c26.98,32.51,52.31,66.38,75.88,101.43
		c1.78,0.88,7.14,11.51,9.2,22.78c-11.23-20.74-30.46-35.68-47.45-52.04c-29.06-28-52.64-61.68-69-98.57
		C1381.28,103.59,1390.86,114.5,1399.69,125.14z M1350.96,152.44c1.82-1.78,4.67-2,7.18-1.56c7.7,1.37,13.45,7.62,18.58,13.52
		c24.86,28.52,49.71,57.05,74.57,85.57c11.45,13.14,19.82,36.43,27.4,59.01c-10.57,1.06-18.74-8.59-25.24-17
		c-11.63-15.06-24.4-29.23-38.16-42.37c-13.58-12.96-28.16-24.95-40.52-39.07c-12.36-14.13-22.58-30.84-25.42-49.39
		C1348.88,158.11,1348.77,154.59,1350.96,152.44z M1322.82,473.19c-0.7-2.98,2.42-5.35,5.17-6.69
		c25.63-12.55,56.69-13.45,83.01-2.43c-7.58-2.1,2.83,2.45,13.25,6.99c2.55,1.11,5.23,2.32,6.87,4.57c1.65,2.24,1.77,5.86-0.49,7.49
		c-1.08,0.77-2.47,0.96-3.79,1.07c-7.9,0.67-15.94-0.31-23.44-2.87c-8.75-2.98-16.95-8.11-26.17-8.81
		c-6.07-0.46-12.08,1.06-18.09,1.99C1347.09,476.38,1334.69,475.93,1322.82,473.19z M1422.64,512.01
		c-12.93-3.65-26.67-4.39-39.91-2.15c-4.81,0.82-9.85,2.01-14.45,0.39c-4.6-1.62-8.05-7.49-5.26-11.49
		c2.4-3.43,7.44-3.31,11.58-2.67c10.89,1.69,21.6,4.47,31.93,8.3c2.46-0.17,8.7-0.33,14.43-0.26c9.24,0.12,20.41,2.9,22.94,11.79
		C1436.69,516.84,1429.63,513.99,1422.64,512.01z M1361.25,254.15c21.49,7.2,34.52,28.45,45.73,48.15
		c30.89,16.46,58.77,44.43,81.73,75.99C1437.42,347.46,1393.42,304.6,1361.25,254.15z M1407.24,504.65
		c-0.24-0.09-0.47-0.18-0.71-0.26C1405.02,504.49,1404.92,504.6,1407.24,504.65z M1406.53,504.39c-1.51,0.1-1.61,0.21,0.71,0.26
		C1407,504.56,1406.77,504.47,1406.53,504.39z M1406.53,504.39c-1.51,0.1-1.61,0.21,0.71,0.26
		C1407,504.56,1406.77,504.47,1406.53,504.39z M1406.53,504.39c-1.51,0.1-1.61,0.21,0.71,0.26
		C1407,504.56,1406.77,504.47,1406.53,504.39z M1406.53,504.39c-1.51,0.1-1.61,0.21,0.71,0.26
		C1407,504.56,1406.77,504.47,1406.53,504.39z M1406.53,504.39c-1.51,0.1-1.61,0.21,0.71,0.26
		C1407,504.56,1406.77,504.47,1406.53,504.39z M1406.53,504.39c-1.51,0.1-1.61,0.21,0.71,0.26
		C1407,504.56,1406.77,504.47,1406.53,504.39z M1406.53,504.39c-1.51,0.1-1.61,0.21,0.71,0.26
		C1407,504.56,1406.77,504.47,1406.53,504.39z M1406.53,504.39c-1.51,0.1-1.61,0.21,0.71,0.26
		C1407,504.56,1406.77,504.47,1406.53,504.39z M1406.53,504.39c-1.51,0.1-1.61,0.21,0.71,0.26
		C1407,504.56,1406.77,504.47,1406.53,504.39z M1406.53,504.39c-1.51,0.1-1.61,0.21,0.71,0.26
		C1407,504.56,1406.77,504.47,1406.53,504.39z M1406.53,504.39c-1.51,0.1-1.61,0.21,0.71,0.26
		C1407,504.56,1406.77,504.47,1406.53,504.39z M1406.53,504.39c-1.51,0.1-1.61,0.21,0.71,0.26
		C1407,504.56,1406.77,504.47,1406.53,504.39z M1406.53,504.39c-1.51,0.1-1.61,0.21,0.71,0.26
		C1407,504.56,1406.77,504.47,1406.53,504.39z M1406.53,504.39c-1.51,0.1-1.61,0.21,0.71,0.26
		C1407,504.56,1406.77,504.47,1406.53,504.39z M1406.53,504.39c-1.51,0.1-1.61,0.21,0.71,0.26
		C1407,504.56,1406.77,504.47,1406.53,504.39z M1406.53,504.39c-1.51,0.1-1.61,0.21,0.71,0.26
		C1407,504.56,1406.77,504.47,1406.53,504.39z M1406.53,504.39c-1.51,0.1-1.61,0.21,0.71,0.26
		C1407,504.56,1406.77,504.47,1406.53,504.39z M1406.53,504.39c-1.51,0.1-1.61,0.21,0.71,0.26
		C1407,504.56,1406.77,504.47,1406.53,504.39z M1406.53,504.39c-1.51,0.1-1.61,0.21,0.71,0.26
		C1407,504.56,1406.77,504.47,1406.53,504.39z M1406.53,504.39c-1.51,0.1-1.61,0.21,0.71,0.26
		C1407,504.56,1406.77,504.47,1406.53,504.39z M1685.08,349.05c-4.89-1.44-10.23-3.22-12.8-7.62c-1.24-2.12-1.15-5.61,1.23-6.25
		c1.41-0.38,2.83,0.51,3.98,1.42c3.29,2.61,6.15,5.77,8.43,9.31c0.57,0.89,1.13,1.95,0.82,2.97
		C1686.42,349.9,1684.75,350.34,1685.08,349.05z M1707.83,353.46c4.33-4.23,11.2-5.6,16.82-3.37c0.67,0.27,1.35,0.6,1.81,1.15
		c1.32,1.55,0.4,3.98-0.95,5.5c-3.6,4.05-10.06,5.21-14.84,2.66c-0.9-0.48-1.77-1.08-2.77-1.23c-0.86-0.12-1.8,0.08-2.55-0.34
		c-1.21-0.69-1.06-2.64-0.05-3.6S1707.77,353.01,1707.83,353.46z M1581.93,406.11c-18.81,25.29-37.63,50.58-56.44,75.87
		c-4.99,6.71-10.26,14.92-7.58,22.85c2.18,6.46,8.87,10.1,15.07,12.92c24.75,11.24,50.8,19.28,76.78,27.28
		c-32.45,0.5-64.96-9.92-91.08-29.18c-3.56-2.63-7.18-5.65-8.56-9.86c-1.94-5.94,1.13-12.25,4.26-17.66
		C1532.23,457.54,1555.23,429.76,1581.93,406.11z M326.42,319.27c2.52-68.89,5.03-137.78,7.55-206.67
		c4.47,6.06,4.35,14.24,4.05,21.77c-2.03,50.74-4.06,101.47-6.09,152.21c-0.56,13.91-1.14,27.99-5.02,41.36
		C326.01,324.65,325.1,321.37,326.42,319.27z M358.86,333.44c30.51-56.11,68.58-108.11,112.87-154.14
		c-11.77,32.07-33.9,59.09-55.63,85.44c-21.03,25.49-42.05,50.98-63.08,76.48C355.14,337.37,357.93,333.91,358.86,333.44z
		 M370.21,367.06c38.07-7.76,75.65-17.93,112.44-30.44c22.63-7.7,45.75-16.41,69.62-15.12c-5.03,5.74-12.38,8.81-19.49,11.59
		c-30.22,11.78-61.17,21.55-92.1,31.31c-24.03,7.59-49.58,15.24-74.01,9.07c1.89-3.33,4.9-6.01,8.35-7.72
		C375.19,365.73,375.38,365.7,370.21,367.06z M251.66,1703.89c0.8-0.75,0.3-2.37-0.79-2.54
		C249.79,1701.18,248.82,1702.57,251.66,1703.89z M312.87,1753.25c-0.87-4.7,0.7-9.78,4.07-13.18c3.89,5.83-1.93,15.1-8.87,14.13
		C307.92,1752.5,307.78,1750.79,312.87,1753.25z M312.6,1682.81c-1.76-5.56-2.37-11.48-1.77-17.28c2.63,3.03,5.42,6.54,5.04,10.53
		C315.49,1680.05,309.69,1683.03,312.6,1682.81z M227.69,1761.62c-0.49-4.99-0.99-9.97-1.48-14.96c4.8-0.67,8.53,6.24,5.32,9.89
		S221,1757.39,227.69,1761.62z M210.44,1695.77c0.23-4.35,0.47-8.71,0.7-13.06c1.04-0.95,2.68,0.09,3.54,1.21
		c1.82,2.39,2.9,5.54,2.06,8.42c-0.84,2.88-4.02,5.11-6.88,4.22S205.9,1691.15,210.44,1695.77z M1016.65,316.95
		c-4.07-19.72-8.58-40.36-21.69-55.64c-11.72-13.66-29.38-21.81-39.01-37.01c-3.63-5.73-5.47-14.3-0.17-18.54
		c3.44-2.75,8.4-2.33,12.68-1.29c16.9,4.11,31.45,15.71,41.05,30.22s14.51,31.75,16.21,49.06c1.06,10.77,0.9,21.79-2.08,32.19
		c-1.12,3.91-4.33,8.55-8.12,7.09C1015.71,320,1015.91,316.96,1016.65,316.95z M833.02,200.62c-14.14,18.65-15.86,45.09-32.01,62.03
		c-9.77,10.25-23.66,15.62-37.55,18.34c-7.5,1.47-16.5,1.75-21.43-4.09c-3.43-4.07-3.72-9.94-2.95-15.21
		c2.85-19.63,17.38-35.45,32.63-48.13c7.44-6.19,15.42-12.07,24.62-15.06c8.25-2.68,17.06-2.92,25.74-3.13
		c2.83-0.07,5.99-0.02,8.04,1.94C832.16,199.26,831.45,203.73,833.02,200.62z M843.38,178.8c-6.09-5.33-13.01-9.72-20.42-12.95
		c-8.95-3.9-18.99-6.37-25.79-13.39c-3.97-4.1-6.5-9.58-7.04-15.27c-0.23-2.44,0.06-5.26,2.01-6.75c1.18-0.89,2.71-1.1,4.18-1.29
		c8.89-1.11,17.77-2.22,27.17-1.99c9.67,3.21,17.91,10.49,22.28,19.69c4.37,9.2,4.82,20.19,1.21,29.71
		C846.49,177.85,844.67,179.93,843.38,178.8z M891.05,165.83c-5.02-6.29-7.83-14.3-7.84-22.35c-0.01-6.71,1.87-13.3,2.18-20.01
		c0.68-14.82-6.27-28.93-7.77-43.68c-0.6-5.87-0.24-12.13,2.87-17.15c3.11-5.02,9.6-8.28,15.11-6.18c5.31,2.03,7.91,7.92,9.64,13.33
		c4.49,14.06,6.84,28.73,8.27,43.42c0.51,5.26,0.91,10.59,0.23,15.83c-1.94,14.96-12.24,27.3-22.11,38.71
		C890.27,166.54,890.52,164.02,891.05,165.83z M961.92,165.55c-6.79-8.63-13.69-17.45-17.55-27.73c-1-2.66-1.8-5.46-1.77-8.3
		c0.02-2.22,0.54-4.41,1.28-6.51c2.14-6.11,6.24-11.65,11.87-14.85c5.63-3.19,12.83-3.82,18.65-0.98s9.87,9.31,9.21,15.75
		c-0.3,2.89-1.45,5.61-2.59,8.28c-1.77,4.15-3.55,8.3-5.32,12.45c-1.77,4.15-3.55,8.32-5.8,12.23
		C967.43,160.18,964.42,164.15,961.92,165.55z M1022.29,202.22c-5.89-8.42-12.04-17.68-11.56-27.95c0.26-5.48,2.41-10.67,4.44-15.77
		c8.12-20.42,14.78-42.39,11.46-64.11c-0.2-1.29-0.35-2.8,0.59-3.69c1-0.95,2.62-0.61,3.9-0.1c12.89,5.05,19.67,19.96,19.47,33.8
		c-0.2,13.84-5.92,26.93-11.54,39.57C1033.46,176.57,1027.86,189.18,1022.29,202.22z M991.19,91.42
		c-7.12-7.77-15.91-13.99-25.6-18.12c-6.15-2.62-12.71-4.44-18.34-8.05c-9.76-6.25-15.81-17.9-15.3-29.48
		c10.3,2.12,16.71,12.37,25.91,17.44c5,2.76,10.76,3.93,15.77,6.67C984.3,65.73,990.1,78.04,991.19,91.42z M760.06,75.85
		c-5.53,0.36-10.89-1.67-16.16-3.37c-5.27-1.7-10.98-3.09-16.28-1.48c-5.3,1.61-9.71,7.32-7.99,12.59c0.27,0.83,0.76,1.69,1.59,1.97
		c0.74,0.25,1.55-0.03,2.27-0.34c4.42-1.94,8.34-5.39,13.15-5.83c4.4-0.4,8.54,1.83,12.55,3.68c4.93,2.27,10.08,4.07,15.36,5.35
		c0.88,0.21,1.81,0.41,2.67,0.12c2.3-0.79,2.15-4.17,1.01-6.31C766.09,78.19,762.09,75.72,760.06,75.85z M840.65,101.67
		c-3.79-4.81-5.65-11.1-5.07-17.2c3.76,0.22,7.32,2.58,8.98,5.96c1.66,3.38,1.36,7.64-0.77,10.75c-0.43,0.64-1.03,1.28-1.8,1.31
		C841.21,102.51,840.49,101.52,840.65,101.67z M864.15,50.04c-6.28-10.07-10.96-21.14-13.81-32.67
		C859.68,24.6,865.39,36.31,864.15,50.04z M729.54,223.98c-9.41,6.28-19,12.28-28.75,18c0.86,2.4,3.57,3.76,6.13,3.74
		c2.55-0.02,4.96-1.14,7.17-2.43c4.39-2.55,8.35-5.82,11.7-9.63C728.35,230.72,730.26,225.56,729.54,223.98z M725.77,262.41
		c-4.04,4.3-7.11,9.51-8.91,15.14c4.51-2.57,8.35-6.3,11.05-10.72c0.79-1.29,1.5-2.83,1.03-4.27
		C728.48,261.13,726.21,260.42,725.77,262.41z M800.91,277.94c-1.27,8.75-2.54,17.51-3.82,26.26c-0.46,3.19-0.91,6.53,0.2,9.55
		c1.11,3.02,4.35,5.52,7.45,4.64c3.31-0.93,4.66-5.06,4.16-8.46c-0.49-3.4-2.24-6.49-2.97-9.85c-0.89-4.09-0.22-8.35-0.67-12.51
		C804.82,283.42,802.74,278.91,800.91,277.94z M1034.58,205.51c6.07-4.12,12.14-8.24,18.22-12.36c1.44-0.97,3.11-2,4.8-1.59
		c2.2,0.53,3.16,3.35,2.5,5.51c-0.66,2.16-2.43,3.78-4.15,5.26c-3.52,3.03-7.91,6.16-12.4,4.97
		C1040.55,206.52,1037.02,204.03,1034.58,205.51z M1864.5,221.08c6.86-5.55,14.53-10.1,22.7-13.46
		C1882.04,216.34,1872.83,222.56,1864.5,221.08z M1791.19,383.59c6.37-1.44,13.08-1.35,19.41,0.26c-6.49,4.35-14.94,5.65-22.43,3.45
		C1788.34,385.08,1791.04,383.49,1791.19,383.59z M1336.28,63.61c-10.69-9.06-18.93-20.98-23.64-34.18
		c5.44-3.97,13.55-1.95,18.36,2.77c4.81,4.71,7.07,11.38,8.95,17.85c0.84,2.9,1.65,5.95,1.03,8.9
		C1340.36,61.89,1337.71,64.83,1336.28,63.61z M1321,270.41c-13.93-3.78-26.3-12.99-33.91-25.25c15.47,1.22,29.85,11.71,35.73,26.06
		C1321.31,272.85,1318.14,272.3,1321,270.41z M1265.53,461.23c-11.96,0.66-23.99-0.09-35.77-2.22c9.88-9.68,28.14-8.54,36.73,2.31
		C1264.5,462.04,1262.5,462.76,1265.53,461.23z M1737.95,1381.44c12.64,5.8,25.37,11.64,36.67,19.75
		c11.3,8.11,21.2,18.73,26.23,31.69c-0.41-0.91-1.74,0.2-1.85,1.19c-0.41,3.86,2.51,7.43,6,9.12s7.47,1.95,11.33,2.37
		c3.86,0.42,7.87,1.1,10.97,3.44c3.09,2.34,4.89,6.83,3.03,10.24s-7.94,3.66-9.22-0.01c-4.81,11.11,3.41,25.71,15.41,27.37
		c2.2,4.2,1.81,9.63-0.96,13.48c-1.57-2.65-5.94-2.91-7.82-0.48c-1.34-1.34-2.06-3.26-1.93-5.15c-5.66,2.43-8.74,9.62-6.59,15.39
		c-11.9-5.86-19.29-19.74-17.5-32.87c-9.2,3.23-12.05,17.28-4.82,23.83c-5.45,0.1-11.01,0.18-16.23-1.4
		c-5.22-1.58-10.14-5.11-11.98-10.25c-3.26-9.1,4.54-18.93,13.59-22.33c0.06-3.58,0.05-7.38-1.86-10.41
		c-1.91-3.02-6.49-4.63-9.15-2.24c-5.87-2.65-12.47-3.64-18.86-2.82c-1.25,0.16-2.58,0.44-3.44,1.36c-0.91,0.98-1.04,2.43-1.13,3.77
		c-0.33,5.12-0.66,10.24-0.99,15.35c-1.49-1.56-4.3,0.75-3.9,2.88s2.46,3.46,4.33,4.55c-4.55,2.56-10.59-0.78-12.81-5.51
		c-2.21-4.73-1.68-10.22-1.1-15.41c0.95-8.55,1.9-17.09,2.85-25.64c0.38-3.4,0.74-6.93-0.35-10.18c-1.1-3.24-4.1-6.11-7.52-5.88
		c-3.57-10.29,12.46-20.35,8.07-30.32c-0.45-1.03-1.13-2.1-0.86-3.19S1737.75,1381.69,1737.95,1381.44z M1768.08,1390.47
		c7.75,1.49,15.7-0.67,23.59-0.72c7.89-0.05,16.96,3.12,19.35,10.64C1796.78,1402.16,1781.95,1398.74,1768.08,1390.47z
		 M1721.12,1420.98c-3.06,7.9-4.87,16.28-5.34,24.74c1.54,1.38,3.44-1.27,3.82-3.3c0.87-4.73,1.74-9.46,2.61-14.18
		C1722.68,1425.62,1723.04,1422.56,1721.12,1420.98z M932.2,1674.76c-4.41,10.58-9.62,21.09-17.7,29.22
		c-9.53,9.59-22.26,15.12-33.96,21.88s-23.24,15.78-27.33,28.66c-2.14,6.73-0.81,15.93,5.9,18.13c3.78,1.24,8.01-0.32,11.07-2.86
		c3.06-2.54,5.25-5.95,7.61-9.16c4.47-6.05,9.76-11.51,15.67-16.17c7.39-5.83,15.76-10.44,22.49-17.03
		c10.94-10.71,16.72-26.48,15.28-41.72C930.77,1680.77,930.12,1674.6,932.2,1674.76z M884.86,1773.51
		c-3.62,8.97-7.29,18.18-7.55,27.84s3.59,20.05,11.94,24.93c0.71,0.41,1.47,0.79,2.29,0.81c2.01,0.05,3.46-2.13,3.52-4.14
		c0.06-2.01-0.81-3.92-1.37-5.85c-2.31-7.94,0.55-16.76-2.09-24.59C889.48,1786.22,883.92,1779.98,884.86,1773.51z M1022.04,1755.58
		c-3.14,7.2-5.88,14.59-8.18,22.1c-0.62,2-1.21,4.06-1.13,6.16c0.12,3.3,1.86,6.3,3.55,9.14c3.92,6.58,7.99,13.32,14.1,17.93
		c4.06,3.06,8.83,5.01,13.61,6.73c5.99,2.16,12.09,4.01,18.28,5.53c1.19,0.29,2.46,0.57,3.6,0.15c1.52-0.55,2.37-2.13,3.08-3.58
		c3.02-6.15,6.09-13.31,3.34-19.58c-1.35-3.09-3.94-5.44-6.54-7.59c-14.92-12.29-33.58-22.1-41.1-39.9
		C1022.09,1755.41,1020.79,1759.28,1022.04,1755.58z M1109.43,1770.37c-8.4,7.28-17.45,15.83-18.02,26.94
		c-0.44,8.59,4.45,17.09,2.64,25.5c-0.26,1.22-0.53,2.79,0.52,3.45c0.63,0.39,1.44,0.24,2.16,0.07c3.01-0.71,6.22-1.53,8.25-3.86
		c2.11-2.42,2.42-5.88,2.63-9.09C1108.56,1799.21,1109.5,1785.04,1109.43,1770.37z M932.35,1770.18
		c-2.42,7.83-4.88,16.06-3.26,24.09c1.58,7.87,6.89,14.53,8.94,22.29c2.29,8.64,0.29,18.04-4.13,25.81
		c-4.42,7.77-11.07,14.06-18.28,19.34c-6.45,4.72-14.34,10.68-13.01,18.56c0.58,3.4,2.92,6.3,5.74,8.29
		c7.8,5.5,18.93,4.48,26.97-0.65c8.04-5.13,13.37-13.66,16.86-22.54c9.29-23.64,6.66-51.64-6.88-73.14
		C941.09,1785.55,935.69,1778.81,932.35,1770.18z M979.39,1794.43c-3.95,7.71-5.78,16.5-5.24,25.15c3.73,1.1,7.65-2.1,8.7-5.85
		c1.05-3.75,0.01-7.73-1.21-11.43C980.42,1798.6,979.01,1794.83,979.39,1794.43z M944.91,1894.73c-3.84,6.52-5.44,14.34-4.47,21.84
		c3.06,0.56,5.66-2.76,5.74-5.88c0.08-3.11-1.48-5.99-2.67-8.87C942.32,1898.95,941.51,1895.56,944.91,1894.73z M1015.36,1819.45
		c1.45,10.42,2.91,20.84,4.36,31.26c0.5,3.56,1,7.16,2.36,10.48c2.72,6.65,8.74,11.64,15.52,14.03s14.23,2.38,21.28,0.99
		c3.64-0.72,7.32-1.86,10.15-4.26s4.62-6.32,3.64-9.89c-0.52-1.9-1.75-3.53-3-5.06c-12.04-14.81-28.27-26.18-46.3-32.44
		C1019.68,1823.28,1015.11,1821.1,1015.36,1819.45z M1114.88,1828.34c-1.94,6.47-3.05,13.19-3.28,19.94c4.38-0.1,7.5-4.82,7.5-9.2
		C1119.1,1834.69,1116.87,1830.65,1114.88,1828.34z M218.66,978.59c-20.63-4.95-44.62,0.59-61.7-12
		c-12.13-8.94-16.99-24.56-20.5-39.22c-3-12.55-5.56-25.36-4.94-38.25c0.48-10.07,2.89-20.08,2.11-30.13
		c-0.98-12.62-6.91-24.28-13.27-35.23c-2.22-3.83-4.11-9.61-0.33-11.93c1.89-1.16,4.32-0.69,6.47-0.14
		c29.69,7.5,59.89,23.07,72.89,50.79c13.59,29,6.43,66.96,27.85,90.77c4.48,4.98,10.39,9.8,10.65,16.49
		C238.25,978.95,224.12,984.36,218.66,978.59z M125.23,995.03c-21.24,1.5-42.65,0.55-63.67-2.82c-0.28-8.55-4.03-16.57-5.54-24.99
		c-1.52-8.42,0.02-18.53,7.34-22.95c7.69-4.64,17.79-0.69,24.78,4.96c17.62,14.22,26.77,38.52,47.38,47.9
		C130.3,1000.19,123.24,999.76,125.23,995.03z M109.64,1038.52c-13.84,8.79-26.13,20.01-36.14,32.99c-3.83,4.97-7.4,10.35-8.8,16.46
		s-0.25,13.13,4.28,17.47c6.76,6.48,18.49,4.5,25.49-1.72c7-6.22,10.44-15.41,13.63-24.21
		C112.9,1066.23,117.65,1051.15,109.64,1038.52z M158.38,1101.05c-8.84,8.37-15.37,19.14-18.72,30.84
		c2.17,9.97,16.72,13.45,24.55,6.92c7.83-6.54,8.35-19.23,2.96-27.89c-1.75-2.82-4.06-5.4-4.93-8.6
		C161.37,1099.11,163.79,1095.91,158.38,1101.05z M201.85,1106.71c0.68,3.16,1.36,6.33,2.04,9.49
		C208.06,1113.23,207.17,1105.61,201.85,1106.71z M1504.9,1057.1c15.83,93.82,9.04,190.74,29.63,283.63
		c1.08,4.87,2.06,10.54-1.11,14.39c-21.49-41.86-24.66-90.44-26.67-137.45c-2.26-52.71-3.58-105.46-3.97-158.22
		C1504.25,1058.31,1506.63,1058.66,1504.9,1057.1z M1492.22,1331.96c-50.28-46.64-92.43-102.03-123.99-162.92
		c-3.18-6.13-6.1-14.07-1.74-19.41C1410.67,1207.95,1452.04,1268.41,1492.22,1331.96z M1448.22,1387.67
		c-34.64-3.49-69.76-7.1-102.23-19.66c-32.47-12.56-62.52-35.39-75.96-67.5c41.55,11.92,79.44,33.78,116.85,55.44
		c20.05,11.6,40.09,23.21,60.14,34.81c1.11,0.64,2.39,1.71,1.98,2.92C1448.59,1394.89,1446.29,1393.26,1448.22,1387.67z
		 M891.35,204.09c7.13-3.89,16.39-4.01,23.22,0.38c6.83,4.39,10.6,13.39,8.22,21.16c-2.14,7.01-8.39,11.85-14.36,16.1
		c-13.2,9.36-26.92,18.17-41.87,24.38c-1.77,0.73-3.69,1.44-5.55,1c-1.3-0.31-2.42-1.15-3.37-2.1c-5.15-5.12-6.2-13.3-4.41-20.33
		c1.79-7.03,5.99-13.18,10.24-19.06C871.6,214.41,881.97,202.59,891.35,204.09z M415.01,1268.12c2.86,1.45,5.29,3.74,6.92,6.49
		c-2.36,0.64-5.08-1.05-5.56-3.44C415.9,1268.77,417.78,1266.17,415.01,1268.12z M453.32,1256.42c1.58,2.7,2.52,5.77,2.7,8.9
		C451.84,1263.79,451.54,1256.74,453.32,1256.42z"/>
</g>
</svg>
